<svg width="39" height="42" viewBox="0 0 39 42" fill="none" xmlns="http://www.w3.org/2000/svg">
<path d="M5.3225 7.09307L1.9199 22.3254C1.04483 26.2428 3.51112 30.1279 7.42851 31.0029L19.5087 33.7014C23.4261 34.5765 27.3112 32.1102 28.1862 28.1928L31.5888 12.9604C32.4639 9.04305 29.9976 5.15799 26.0802 4.28293L14 1.58445C10.0826 0.709386 6.19756 3.17568 5.3225 7.09307Z" fill="url(#paint0_linear_39:1218)"/>
<path d="M27.7753 9.81119H7.26788C3.25394 9.81119 0 13.0651 0 17.0791V33.8319C0 37.8458 3.25394 41.0998 7.26788 41.0998H27.7753C31.7892 41.0998 35.0432 37.8458 35.0432 33.8319V17.0791C35.0432 13.0651 31.7892 9.81119 27.7753 9.81119Z" fill="url(#paint1_linear_39:1218)"/>
<g style="mix-blend-mode:darken" opacity="0.05">
<path d="M27.7753 9.81119H7.26788C3.25394 9.81119 0 13.0651 0 17.0791V33.8319C0 37.8458 3.25394 41.0998 7.26788 41.0998H27.7753C31.7892 41.0998 35.0432 37.8458 35.0432 33.8319V17.0791C35.0432 13.0651 31.7892 9.81119 27.7753 9.81119Z" fill="#6D54D0"/>
</g>
<path d="M26.8112 21.0764H37.9747C38.1652 21.0764 38.3479 21.1521 38.4827 21.2869C38.6174 21.4216 38.6931 21.6043 38.6931 21.7949V29.6998C38.6931 29.8903 38.6174 30.0731 38.4827 30.2078C38.3479 30.3425 38.1652 30.4182 37.9747 30.4182H26.8112C25.5724 30.4182 24.3844 29.9261 23.5084 29.0502C22.6324 28.1743 22.1402 26.9863 22.1401 25.7475V25.7475C22.1401 24.5087 22.6323 23.3206 23.5083 22.4446C24.3843 21.5686 25.5724 21.0764 26.8112 21.0764V21.0764Z" fill="url(#paint2_linear_39:1218)"/>
<g style="mix-blend-mode:darken" opacity="0.05">
<path d="M26.8112 21.0764H37.9747C38.1652 21.0764 38.3479 21.1521 38.4827 21.2869C38.6174 21.4216 38.6931 21.6043 38.6931 21.7949V29.6998C38.6931 29.8903 38.6174 30.0731 38.4827 30.2078C38.3479 30.3425 38.1652 30.4182 37.9747 30.4182H26.8112C25.5724 30.4182 24.3844 29.9261 23.5084 29.0502C22.6324 28.1743 22.1402 26.9863 22.1401 25.7475V25.7475C22.1401 24.5087 22.6323 23.3206 23.5083 22.4446C24.3843 21.5686 25.5724 21.0764 26.8112 21.0764V21.0764Z" fill="#6D54D0"/>
</g>
<path d="M27.2713 27.4031C28.2156 27.4031 28.9811 26.6376 28.9811 25.6933C28.9811 24.749 28.2156 23.9836 27.2713 23.9836C26.327 23.9836 25.5615 24.749 25.5615 25.6933C25.5615 26.6376 26.327 27.4031 27.2713 27.4031Z" fill="url(#paint3_linear_39:1218)"/>
<path d="M18.2519 19.6211C18.9965 19.6211 19.6001 19.0175 19.6001 18.2729C19.6001 17.5283 18.9965 16.9247 18.2519 16.9247H8.56019C7.81561 16.9247 7.212 17.5283 7.212 18.2729C7.212 19.0175 7.81561 19.6211 8.56019 19.6211H18.2519Z" fill="url(#paint4_linear_39:1218)"/>
<defs>
<linearGradient id="paint0_linear_39:1218" x1="3.6212" y1="14.7092" x2="29.8875" y2="20.5766" gradientUnits="userSpaceOnUse">
<stop stop-color="#F15E9E"/>
<stop offset="1" stop-color="#9578FC"/>
</linearGradient>
<linearGradient id="paint1_linear_39:1218" x1="17.5216" y1="9.81119" x2="17.5216" y2="41.0998" gradientUnits="userSpaceOnUse">
<stop stop-color="#957DEB"/>
<stop offset="1" stop-opacity="0.25"/>
</linearGradient>
<linearGradient id="paint2_linear_39:1218" x1="30.4166" y1="21.0764" x2="30.4166" y2="30.4182" gradientUnits="userSpaceOnUse">
<stop stop-color="#957DEB"/>
<stop offset="1" stop-opacity="0.25"/>
</linearGradient>
<linearGradient id="paint3_linear_39:1218" x1="27.2713" y1="23.9836" x2="27.2713" y2="27.4031" gradientUnits="userSpaceOnUse">
<stop stop-color="white"/>
<stop offset="1" stop-color="white" stop-opacity="0.2"/>
</linearGradient>
<linearGradient id="paint4_linear_39:1218" x1="19.6001" y1="18.2729" x2="7.212" y2="18.2729" gradientUnits="userSpaceOnUse">
<stop stop-color="white"/>
<stop offset="1" stop-color="white" stop-opacity="0"/>
</linearGradient>
</defs>
</svg>
