<svg width="46" height="43" viewBox="0 0 46 43" fill="none" xmlns="http://www.w3.org/2000/svg">
<path d="M21.9857 2.37717L8.6803 6.02099C3.8863 7.33386 1.0643 12.2845 2.37718 17.0785L6.15956 30.8899C7.47244 35.6839 12.423 38.5059 17.217 37.193L30.5225 33.5492C35.3165 32.2363 38.1385 27.2857 36.8256 22.4917L33.0432 8.68029C31.7303 3.88629 26.7797 1.06429 21.9857 2.37717Z" fill="url(#paint0_linear_27:2445)"/>
<path d="M36.2847 7.39572H19.5728C14.5998 7.39572 10.5684 11.4272 10.5684 16.4002V33.637C10.5684 38.61 14.5998 42.6414 19.5728 42.6414H36.2847C41.2577 42.6414 45.2892 38.61 45.2892 33.637V16.4002C45.2892 11.4272 41.2577 7.39572 36.2847 7.39572Z" fill="url(#paint1_linear_27:2445)"/>
<g style="mix-blend-mode:darken" opacity="0.05">
<path d="M36.2847 7.39572H19.5728C14.5998 7.39572 10.5684 11.4272 10.5684 16.4002V33.637C10.5684 38.61 14.5998 42.6414 19.5728 42.6414H36.2847C41.2577 42.6414 45.2892 38.61 45.2892 33.637V16.4002C45.2892 11.4272 41.2577 7.39572 36.2847 7.39572Z" fill="#957DEB"/>
</g>
<path d="M26.4124 33.8501V16.1635C26.4124 15.7674 26.5697 15.3876 26.8498 15.1075C27.1299 14.8274 27.5097 14.6701 27.9058 14.6701C28.3019 14.6701 28.6818 14.8274 28.9618 15.1075C29.2419 15.3876 29.3993 15.7674 29.3993 16.1635V33.8501C29.3993 34.2462 29.2419 34.6261 28.9618 34.9061C28.6818 35.1862 28.3019 35.3436 27.9058 35.3436C27.5097 35.3436 27.1299 35.1862 26.8498 34.9061C26.5697 34.6261 26.4124 34.2462 26.4124 33.8501ZM18.3271 33.8505V21.7166C18.3271 21.3205 18.4845 20.9407 18.7646 20.6606C19.0446 20.3805 19.4245 20.2232 19.8206 20.2232C20.2167 20.2232 20.5965 20.3805 20.8766 20.6606C21.1567 20.9407 21.314 21.3205 21.314 21.7166V33.8505C21.314 34.2466 21.1567 34.6264 20.8766 34.9065C20.5965 35.1866 20.2167 35.3439 19.8206 35.3439C19.4245 35.3439 19.0446 35.1866 18.7646 34.9065C18.4845 34.6264 18.3271 34.2466 18.3271 33.8505V33.8505ZM34.4977 33.8505V27.9226C34.4977 27.7265 34.5363 27.5323 34.6113 27.3511C34.6864 27.17 34.7964 27.0054 34.935 26.8667C35.0737 26.728 35.2383 26.618 35.4195 26.543C35.6006 26.468 35.7948 26.4293 35.9909 26.4293C36.187 26.4293 36.3812 26.468 36.5623 26.543C36.7435 26.618 36.9081 26.728 37.0468 26.8667C37.1854 27.0054 37.2954 27.17 37.3705 27.3511C37.4455 27.5323 37.4841 27.7265 37.4841 27.9226V33.8505C37.4841 34.2465 37.3268 34.6264 37.0468 34.9064C36.7667 35.1864 36.3869 35.3437 35.9909 35.3437C35.5949 35.3437 35.215 35.1864 34.935 34.9064C34.655 34.6264 34.4977 34.2465 34.4977 33.8505Z" fill="url(#paint2_linear_27:2445)"/>
<defs>
<linearGradient id="paint0_linear_27:2445" x1="15.333" y1="4.19908" x2="23.8698" y2="35.3711" gradientUnits="userSpaceOnUse">
<stop stop-color="#F15E9E"/>
<stop offset="1" stop-color="#9578FC"/>
</linearGradient>
<linearGradient id="paint1_linear_27:2445" x1="27.9288" y1="7.39572" x2="27.9288" y2="42.6414" gradientUnits="userSpaceOnUse">
<stop stop-color="#957DEB"/>
<stop offset="1" stop-opacity="0.25"/>
</linearGradient>
<linearGradient id="paint2_linear_27:2445" x1="27.9056" y1="14.6701" x2="27.9056" y2="35.3439" gradientUnits="userSpaceOnUse">
<stop stop-color="white"/>
<stop offset="1" stop-color="white" stop-opacity="0.302"/>
</linearGradient>
</defs>
</svg>
