<svg width="49" height="45" viewBox="0 0 49 45" fill="none" xmlns="http://www.w3.org/2000/svg">
<path d="M25.3498 2.28497L7.4554 7.76935C3.33789 9.03131 1.02302 13.3922 2.28497 17.5097L7.92142 35.9003C9.18337 40.0178 13.5443 42.3327 17.6618 41.0707L35.5562 35.5864C39.6737 34.3244 41.9886 29.9635 40.7267 25.846L35.0902 7.45539C33.8282 3.33789 29.4673 1.02301 25.3498 2.28497Z" fill="url(#paint0_linear_39:1199)"/>
<path d="M35.8906 9.9062H17.1726C12.8655 9.9062 9.37402 13.3977 9.37402 17.7047V36.9418C9.37402 41.2488 12.8655 44.7403 17.1726 44.7403H35.8906C40.1976 44.7403 43.6891 41.2488 43.6891 36.9418V17.7047C43.6891 13.3977 40.1976 9.9062 35.8906 9.9062Z" fill="url(#paint1_linear_39:1199)"/>
<g style="mix-blend-mode:darken" opacity="0.05">
<path d="M36.5166 9.9062H17.7985C13.4915 9.9062 10 13.3977 10 17.7047V36.9418C10 41.2488 13.4915 44.7403 17.7985 44.7403H36.5166C40.8236 44.7403 44.3151 41.2488 44.3151 36.9418V17.7047C44.3151 13.3977 40.8236 9.9062 36.5166 9.9062Z" fill="url(#paint2_linear_39:1199)"/>
</g>
<path d="M19.6987 33.9712L17.8989 32.5285L24.287 24.5642L29.9558 29.0554L34.8348 22.9562L36.6363 24.3989L30.3227 32.2918L24.6524 27.7983L19.6987 33.9712Z" fill="url(#paint3_linear_39:1199)"/>
<path d="M31 23H36.5V27.5" stroke="#F1F0F8" stroke-width="2"/>
<path d="M46.0452 13.165C47.3468 13.165 48.4019 12.1099 48.4019 10.8083C48.4019 9.50672 47.3468 8.45158 46.0452 8.45158C44.7436 8.45158 43.6885 9.50672 43.6885 10.8083C43.6885 12.1099 44.7436 13.165 46.0452 13.165Z" fill="white"/>
<g style="mix-blend-mode:darken" opacity="0.05">
<path d="M46.0452 13.165C47.3468 13.165 48.4019 12.1099 48.4019 10.8083C48.4019 9.50672 47.3468 8.45158 46.0452 8.45158C44.7436 8.45158 43.6885 9.50672 43.6885 10.8083C43.6885 12.1099 44.7436 13.165 46.0452 13.165Z" fill="#4582FF"/>
</g>
<defs>
<linearGradient id="paint0_linear_39:1199" x1="16.4026" y1="5.02716" x2="26.609" y2="38.3285" gradientUnits="userSpaceOnUse">
<stop stop-color="#F15E9E"/>
<stop offset="1" stop-color="#9578FC"/>
</linearGradient>
<linearGradient id="paint1_linear_39:1199" x1="26.5316" y1="9.9062" x2="26.5316" y2="44.7403" gradientUnits="userSpaceOnUse">
<stop stop-color="#957DEB"/>
<stop offset="1" stop-opacity="0.25"/>
</linearGradient>
<linearGradient id="paint2_linear_39:1199" x1="27.1575" y1="9.9062" x2="27.1575" y2="44.7403" gradientUnits="userSpaceOnUse">
<stop stop-color="#1352D1"/>
<stop offset="1" stop-color="#4582FF" stop-opacity="0"/>
</linearGradient>
<linearGradient id="paint3_linear_39:1199" x1="27.2676" y1="22.9562" x2="27.2676" y2="33.9712" gradientUnits="userSpaceOnUse">
<stop stop-color="white"/>
<stop offset="1" stop-color="white" stop-opacity="0.271"/>
</linearGradient>
</defs>
</svg>
