<svg width="44" height="38" viewBox="0 0 44 38" fill="none" xmlns="http://www.w3.org/2000/svg">
<path d="M28.9466 14.4733C28.9466 6.47991 22.4666 0 14.4733 0C6.47991 0 0 6.48028 0 14.4737C0 22.467 6.47991 28.9469 14.4733 28.9469C22.4666 28.9469 28.9466 22.4666 28.9466 14.4733Z" fill="url(#paint0_linear_39:1193)"/>
<path d="M43.5334 18.7896C43.5332 22.4753 42.44 26.0782 40.3922 29.1426C38.3444 32.2071 35.4339 34.5955 32.0287 36.0058C28.6235 37.4161 24.8764 37.785 21.2615 37.0658C17.6467 36.3466 14.3262 34.5717 11.7201 31.9654C9.11398 29.3591 7.33918 26.0386 6.62021 22.4236C5.90124 18.8087 6.27036 15.0618 7.68088 11.6566C9.0914 8.25149 11.48 5.34107 14.5446 3.29342C17.6092 1.24576 21.2122 0.152832 24.8979 0.152832C27.3451 0.152832 29.7684 0.634857 32.0294 1.57138C34.2904 2.50791 36.3448 3.8806 38.0753 5.61107C39.8058 7.34155 41.1784 9.39592 42.1149 11.6569C43.0514 13.9179 43.5334 16.3412 43.5334 18.7884" fill="url(#paint1_linear_39:1193)"/>
<g style="mix-blend-mode:darken" opacity="0.05">
<path d="M43.5334 18.7896C43.5332 22.4753 42.44 26.0782 40.3922 29.1426C38.3444 32.2071 35.4339 34.5955 32.0287 36.0058C28.6235 37.4161 24.8764 37.785 21.2615 37.0658C17.6467 36.3466 14.3262 34.5717 11.7201 31.9654C9.11398 29.3591 7.33918 26.0386 6.62021 22.4236C5.90124 18.8087 6.27036 15.0618 7.68088 11.6566C9.0914 8.25149 11.48 5.34107 14.5446 3.29342C17.6092 1.24576 21.2122 0.152832 24.8979 0.152832C27.3451 0.152832 29.7684 0.634857 32.0294 1.57138C34.2904 2.50791 36.3448 3.8806 38.0753 5.61107C39.8058 7.34155 41.1784 9.39592 42.1149 11.6569C43.0514 13.9179 43.5334 16.3412 43.5334 18.7884" fill="#4582FF"/>
</g>
<path d="M32.0918 12.6492L29.0726 22.1908C29.0156 22.3854 28.9106 22.5626 28.7673 22.7061C28.6241 22.8497 28.4472 22.955 28.2527 23.0125L18.7484 25.9944C18.6033 26.039 18.4489 26.0433 18.3016 26.0067C18.1543 25.9701 18.0196 25.894 17.9123 25.7867C17.805 25.6793 17.7291 25.5448 17.6925 25.3974C17.656 25.2501 17.6603 25.0956 17.705 24.9506L20.6865 15.3898C20.7465 15.1968 20.8524 15.0213 20.9953 14.8783C21.1382 14.7354 21.3138 14.6293 21.5068 14.5693L31.0484 11.5877C31.1953 11.5418 31.3521 11.5373 31.5014 11.5747C31.6508 11.6122 31.7868 11.6901 31.8948 11.7999C32.0027 11.9097 32.0781 12.0472 32.1129 12.1972C32.1477 12.3471 32.1406 12.5038 32.0921 12.6499" fill="url(#paint2_linear_39:1193)"/>
<defs>
<linearGradient id="paint0_linear_39:1193" x1="14.4733" y1="0" x2="14.4733" y2="28.9469" gradientUnits="userSpaceOnUse">
<stop stop-color="#F15E9E"/>
<stop offset="1" stop-color="#9578FC"/>
</linearGradient>
<linearGradient id="paint1_linear_39:1193" x1="24.8978" y1="0.152832" x2="24.8978" y2="37.424" gradientUnits="userSpaceOnUse">
<stop stop-color="#957DEB"/>
<stop offset="1" stop-opacity="0.25"/>
</linearGradient>
<linearGradient id="paint2_linear_39:1193" x1="24.9013" y1="11.5496" x2="24.9013" y2="26.0313" gradientUnits="userSpaceOnUse">
<stop stop-color="white"/>
<stop offset="1" stop-color="#B8A4FF" stop-opacity="0"/>
</linearGradient>
</defs>
</svg>
