<svg width="17" height="14" viewBox="0 0 17 14" fill="none" xmlns="http://www.w3.org/2000/svg">
<path fill-rule="evenodd" clip-rule="evenodd" d="M15.5833 14H1.41667C1.04094 14 0.680609 13.8265 0.414932 13.5176C0.149255 13.2087 0 12.7898 0 12.3529V1.64706C0 1.21023 0.149255 0.791296 0.414932 0.482412C0.680609 0.173529 1.04094 0 1.41667 0H15.5833C15.9591 0 16.3194 0.173529 16.5851 0.482412C16.8507 0.791296 17 1.21023 17 1.64706V12.3529C17 12.7898 16.8507 13.2087 16.5851 13.5176C16.3194 13.8265 15.9591 14 15.5833 14ZM2.125 10.2941C2.125 10.4033 2.16231 10.5081 2.22873 10.5853C2.29515 10.6625 2.38524 10.7059 2.47917 10.7059H3.89583C3.98976 10.7059 4.07985 10.6625 4.14627 10.5853C4.21269 10.5081 4.25 10.4033 4.25 10.2941V9.47059C4.25 9.36138 4.21269 9.25665 4.14627 9.17943C4.07985 9.10221 3.98976 9.05882 3.89583 9.05882H2.47917C2.38524 9.05882 2.29515 9.10221 2.22873 9.17943C2.16231 9.25665 2.125 9.36138 2.125 9.47059V10.2941ZM4.95833 4.52941C4.95833 4.42021 4.92102 4.31547 4.8546 4.23825C4.78818 4.16103 4.6981 4.11765 4.60417 4.11765H1.77083C1.6769 4.11765 1.58682 4.16103 1.5204 4.23825C1.45398 4.31547 1.41667 4.42021 1.41667 4.52941V7C1.41667 7.10921 1.45398 7.21394 1.5204 7.29116C1.58682 7.36838 1.6769 7.41176 1.77083 7.41176H4.60417C4.6981 7.41176 4.78818 7.36838 4.8546 7.29116C4.92102 7.21394 4.95833 7.10921 4.95833 7V4.52941ZM7.79167 9.47059C7.79167 9.36138 7.75435 9.25665 7.68793 9.17943C7.62151 9.10221 7.53143 9.05882 7.4375 9.05882H6.02083C5.9269 9.05882 5.83682 9.10221 5.7704 9.17943C5.70398 9.25665 5.66667 9.36138 5.66667 9.47059V10.2941C5.66667 10.4033 5.70398 10.5081 5.7704 10.5853C5.83682 10.6625 5.9269 10.7059 6.02083 10.7059H7.4375C7.53143 10.7059 7.62151 10.6625 7.68793 10.5853C7.75435 10.5081 7.79167 10.4033 7.79167 10.2941V9.47059ZM11.3333 9.47059C11.3333 9.36138 11.296 9.25665 11.2296 9.17943C11.1632 9.10221 11.0731 9.05882 10.9792 9.05882H9.5625C9.46857 9.05882 9.37849 9.10221 9.31207 9.17943C9.24565 9.25665 9.20833 9.36138 9.20833 9.47059V10.2941C9.20833 10.4033 9.24565 10.5081 9.31207 10.5853C9.37849 10.6625 9.46857 10.7059 9.5625 10.7059H10.9792C11.0731 10.7059 11.1632 10.6625 11.2296 10.5853C11.296 10.5081 11.3333 10.4033 11.3333 10.2941V9.47059ZM14.875 9.47059C14.875 9.36138 14.8377 9.25665 14.7713 9.17943C14.7048 9.10221 14.6148 9.05882 14.5208 9.05882H13.1042C13.0102 9.05882 12.9202 9.10221 12.8537 9.17943C12.7873 9.25665 12.75 9.36138 12.75 9.47059V10.2941C12.75 10.4033 12.7873 10.5081 12.8537 10.5853C12.9202 10.6625 13.0102 10.7059 13.1042 10.7059H14.5208C14.6148 10.7059 14.7048 10.6625 14.7713 10.5853C14.8377 10.5081 14.875 10.4033 14.875 10.2941V9.47059Z" fill="#685BA8"/>
</svg>
