<svg width="22" height="18" viewBox="0 0 22 18" fill="none" xmlns="http://www.w3.org/2000/svg">
<path d="M14.3333 17V15.2222C14.3333 14.2793 13.9587 13.3749 13.2919 12.7081C12.6251 12.0413 11.7208 11.6667 10.7778 11.6667H4.55556C3.61256 11.6667 2.70819 12.0413 2.0414 12.7081C1.3746 13.3749 1 14.2793 1 15.2222V17" stroke="#F15E9E" stroke-width="2" stroke-linecap="round" stroke-linejoin="round"/>
<path d="M7.66688 8.11111C9.63056 8.11111 11.2224 6.51923 11.2224 4.55556C11.2224 2.59188 9.63056 1 7.66688 1C5.7032 1 4.11133 2.59188 4.11133 4.55556C4.11133 6.51923 5.7032 8.11111 7.66688 8.11111Z" stroke="#F15E9E" stroke-width="2" stroke-linecap="round" stroke-linejoin="round"/>
<path d="M20.5555 8.11108H15.2222" stroke="#F15E9E" stroke-width="2" stroke-linecap="round" stroke-linejoin="round"/>
</svg>
