<svg width="14" height="17" viewBox="0 0 14 17" fill="none" xmlns="http://www.w3.org/2000/svg">
<path fill-rule="evenodd" clip-rule="evenodd" d="M13.4289 0.0622675C13.4921 0.0178299 13.5643 -0.00361188 13.6372 0.00049688C13.7101 0.00460564 13.7804 0.0340914 13.8399 0.0854418C13.8993 0.136792 13.9454 0.207842 13.9726 0.290128C13.9998 0.372414 14.0069 0.462466 13.9932 0.549558L11.8039 14.4197C11.7912 14.4982 11.7647 14.5725 11.7263 14.6376C11.6879 14.7026 11.6385 14.7568 11.5813 14.7966C11.5242 14.8364 11.4607 14.8607 11.3951 14.868C11.3295 14.8753 11.2634 14.8654 11.2013 14.8389L7.79496 13.2882L6.34292 16.8183C6.31572 16.8845 6.27092 16.9376 6.2158 16.969C6.16068 17.0004 6.09845 17.0082 6.03921 16.9912C5.97997 16.9742 5.92718 16.9334 5.88941 16.8754C5.85164 16.8173 5.8311 16.7455 5.83111 16.6715V12.895C5.83438 12.5716 5.92537 12.2586 6.08994 12.0045C6.27889 11.742 11.6571 3.18494 11.6571 3.18494C11.6571 3.18494 4.45354 11.0113 4.17022 11.2903C4.05411 11.4094 3.91479 11.4902 3.76562 11.525C3.61644 11.5598 3.46242 11.5474 3.3183 11.4891L0.255914 10.2159C0.18713 10.1873 0.126577 10.1352 0.0815009 10.0659C0.0364252 9.99654 0.00873724 9.91289 0.00175107 9.82492C-0.00523509 9.73695 0.00877655 9.6484 0.0421088 9.56987C0.075441 9.49133 0.126682 9.42613 0.189698 9.38209L13.4289 0.0622675Z" fill="#957DEB" fill-opacity="0.63"/>
</svg>
