<svg width="19" height="19" viewBox="0 0 19 19" fill="none" xmlns="http://www.w3.org/2000/svg">
<path d="M11.4995 17.2365V12.7364C11.4995 12.5374 11.4204 12.3467 11.2798 12.206C11.1391 12.0654 10.9484 11.9864 10.7495 11.9864H7.74945C7.55054 11.9864 7.35977 12.0654 7.21912 12.206C7.07847 12.3467 6.99945 12.5374 6.99945 12.7364V17.2365C6.99945 17.4354 6.92045 17.6261 6.77981 17.7668C6.63918 17.9074 6.44844 17.9864 6.24954 17.9865L1.75009 17.987C1.65159 17.9871 1.55406 17.9677 1.46305 17.93C1.37205 17.8923 1.28936 17.8371 1.2197 17.7674C1.15005 17.6978 1.0948 17.6151 1.0571 17.5241C1.0194 17.4331 1 17.3355 1 17.237V8.56889C1 8.4644 1.02183 8.36106 1.0641 8.2655C1.10637 8.16994 1.16814 8.08427 1.24545 8.01397L8.74493 1.19509C8.88299 1.06956 9.06287 1.00001 9.24946 1C9.43605 0.999994 9.61594 1.06954 9.754 1.19505L17.2545 8.01397C17.3318 8.08427 17.3936 8.16994 17.4359 8.26551C17.4782 8.36107 17.5 8.46442 17.5 8.56892V17.2371C17.5 17.3356 17.4806 17.4331 17.4429 17.5241C17.4052 17.6151 17.35 17.6978 17.2803 17.7674C17.2106 17.8371 17.128 17.8923 17.0369 17.93C16.9459 17.9677 16.8484 17.9871 16.7499 17.9871L12.2494 17.9865C12.0505 17.9864 11.8597 17.9074 11.7191 17.7668C11.5785 17.6261 11.4994 17.4354 11.4995 17.2365V17.2365Z" fill="#00B670" fill-opacity="0.1" stroke="white" stroke-width="2" stroke-linecap="round" stroke-linejoin="round"/>
</svg>
