<svg width="16" height="16" viewBox="0 0 16 16" fill="none" xmlns="http://www.w3.org/2000/svg">
<path fill-rule="evenodd" clip-rule="evenodd" d="M7.00373 9.99991V8.3391C7.00263 8.27677 6.98454 8.21592 6.9514 8.16312C6.91826 8.11031 6.87133 8.06756 6.81568 8.03946C6.76004 8.01137 6.69777 7.999 6.63561 8.00368C6.57345 8.00837 6.51374 8.02994 6.46293 8.06606L3.13823 10.3956C3.09434 10.4264 3.0585 10.4673 3.03376 10.5148C3.00901 10.5623 2.99609 10.6151 2.99609 10.6687C2.99609 10.7223 3.00901 10.7751 3.03376 10.8226C3.0585 10.8702 3.09434 10.911 3.13823 10.9418L6.46293 13.2714C6.51374 13.3075 6.57344 13.3291 6.6356 13.3338C6.69776 13.3385 6.76002 13.3261 6.81567 13.298C6.87132 13.2699 6.91824 13.2271 6.95138 13.1744C6.98453 13.1216 7.00263 13.0607 7.00373 12.9984V11.3333H14.8637C14.9071 11.3335 14.9497 11.345 14.9873 11.3666C15.025 11.3882 15.0564 11.4191 15.0785 11.4564C15.1006 11.4938 15.1127 11.5362 15.1136 11.5795C15.1145 11.6229 15.1041 11.6658 15.0835 11.7039C14.2555 13.2905 12.9191 14.5534 11.2883 15.2904C9.65753 16.0275 7.82664 16.1961 6.08867 15.7693C4.35071 15.3425 2.80618 14.345 1.70229 12.9364C0.598403 11.5277 -0.00100756 9.7895 1.27134e-06 7.99986C0.00140852 7.4352 0.0637019 6.87235 0.185801 6.32105C0.207011 6.22922 0.258878 6.14736 0.332852 6.08896C0.406827 6.03057 0.498492 5.99912 0.592735 5.99981H8.99667V7.66062C8.99776 7.72295 9.01584 7.7838 9.04897 7.83661C9.08211 7.88942 9.12903 7.93218 9.18468 7.96029C9.24033 7.98839 9.30259 8.00076 9.36476 7.99607C9.42692 7.99139 9.48663 7.96982 9.53743 7.93369L12.8622 5.60403C12.906 5.57329 12.9419 5.53243 12.9666 5.4849C12.9913 5.43738 13.0043 5.38459 13.0043 5.33101C13.0043 5.27743 12.9913 5.22464 12.9666 5.17712C12.9419 5.12959 12.906 5.08873 12.8622 5.05799L9.53743 2.72833C9.48663 2.6922 9.42692 2.67063 9.36476 2.66594C9.30259 2.66126 9.24033 2.67363 9.18468 2.70173C9.12903 2.72984 9.08211 2.7726 9.04897 2.82541C9.01584 2.87822 8.99776 2.93907 8.99667 3.0014V4.66644H1.13667C1.09328 4.66622 1.05069 4.65477 1.01303 4.63321C0.975382 4.61164 0.943953 4.5807 0.921805 4.54339C0.899656 4.50608 0.887542 4.46367 0.886642 4.42029C0.885742 4.37691 0.896086 4.33403 0.916668 4.29583C1.74474 2.70936 3.08109 1.44655 4.71183 0.70954C6.34258 -0.0274735 8.17342 -0.196083 9.91134 0.230698C11.6493 0.657479 13.1938 1.65498 14.2976 3.06353C15.4015 4.47209 16.001 6.21027 16 7.99986C15.9986 8.5645 15.9364 9.12734 15.8143 9.67863C15.7931 9.77046 15.7413 9.85233 15.6673 9.91073C15.5933 9.96913 15.5016 10.0006 15.4074 9.99991H7.00373Z" fill="#F15E9E"/>
</svg>
