<svg width="14" height="16" viewBox="0 0 14 16" fill="none" xmlns="http://www.w3.org/2000/svg">
<path fill-rule="evenodd" clip-rule="evenodd" d="M13.2486 6.50162C12.9608 7.64431 12.158 8.39303 10.4766 8.50331C12.346 9.30533 12.8711 10.313 12.5152 11.7246C11.9999 13.7647 10.3345 14.1519 7.19241 13.541L6.57154 16L4.98861 15.6621L5.60938 13.2075L4.47949 12.9662L3.86 15.4208L2.27702 15.0833L2.89651 12.6287L0 12.0099L0.749282 10.4587L1.37585 10.5926C2.30754 10.7922 2.44482 10.674 2.63738 9.91366L4.04502 4.33677C4.23928 3.57124 4.17261 3.4085 3.24097 3.20889L2.38703 3.02613L2.71995 1.71028L5.72954 2.35357L6.32251 0L7.90549 0.339077L7.31066 2.69143L8.44107 2.93308L9.03538 0.580722L10.617 0.918588L10.0209 3.27695C12.5731 3.89836 13.6597 4.8715 13.2486 6.50162ZM8.31305 4.26551L7.02726 3.99154L6.27279 6.97433L6.7252 7.06993L7.49068 7.2339C8.99074 7.55384 9.78669 7.24667 10.0583 6.16921C10.3229 5.1226 9.77788 4.57867 8.31305 4.26551ZM5.94519 8.27452L7.2698 8.55768C8.93569 8.91283 9.56714 9.56913 9.25807 10.7933C8.95776 11.9844 8.06175 12.3003 6.43022 11.9516L5.53861 11.7616L5.08794 11.6644L5.94519 8.27452Z" fill="#F7931A"/>
</svg>
