<svg width="18" height="18" viewBox="0 0 18 18" fill="none" xmlns="http://www.w3.org/2000/svg">
<path d="M2 2C0.895431 2 0 2.89543 0 4V7C0 8.10457 0.89543 9 2 9H5C6.10457 9 7 8.10457 7 7V4C7 2.89543 6.10457 2 5 2H2Z" fill="white"/>
<path d="M0 13C0 11.8954 0.895431 11 2 11H5C6.10457 11 7 11.8954 7 13V16C7 17.1046 6.10457 18 5 18H2C0.89543 18 0 17.1046 0 16V13Z" fill="white"/>
<path d="M11 11C9.89543 11 9 11.8954 9 13V16C9 17.1046 9.89543 18 11 18H14C15.1046 18 16 17.1046 16 16V13C16 11.8954 15.1046 11 14 11H11Z" fill="white"/>
<rect x="9" width="9" height="9" rx="2" fill="#957DEB"/>
</svg>
