<svg width="46" height="43" viewBox="0 0 46 43" fill="none" xmlns="http://www.w3.org/2000/svg">
<path d="M21.9857 2.37696L8.6803 6.02077C3.8863 7.33365 1.0643 12.2843 2.37718 17.0782L6.15956 30.8897C7.47244 35.6837 12.423 38.5057 17.217 37.1928L30.5225 33.549C35.3165 32.2361 38.1385 27.2855 36.8256 22.4915L33.0432 8.68008C31.7303 3.88608 26.7797 1.06408 21.9857 2.37696Z" fill="url(#paint0_linear_414:584)"/>
<path d="M36.2845 7.39551H19.5726C14.5995 7.39551 10.5681 11.4269 10.5681 16.4V33.6367C10.5681 38.6098 14.5995 42.6412 19.5726 42.6412H36.2845C41.2575 42.6412 45.2889 38.6098 45.2889 33.6367V16.4C45.2889 11.4269 41.2575 7.39551 36.2845 7.39551Z" fill="url(#paint1_linear_414:584)"/>
<g style="mix-blend-mode:darken" opacity="0.05">
<path d="M36.2845 7.39551H19.5726C14.5995 7.39551 10.5681 11.4269 10.5681 16.4V33.6367C10.5681 38.6098 14.5995 42.6412 19.5726 42.6412H36.2845C41.2575 42.6412 45.2889 38.6098 45.2889 33.6367V16.4C45.2889 11.4269 41.2575 7.39551 36.2845 7.39551Z" fill="#957DEB"/>
</g>
<path d="M26.4124 33.85V16.1633C26.4124 15.7673 26.5697 15.3874 26.8498 15.1073C27.1299 14.8273 27.5097 14.6699 27.9058 14.6699C28.3019 14.6699 28.6818 14.8273 28.9618 15.1073C29.2419 15.3874 29.3993 15.7673 29.3993 16.1633V33.85C29.3993 34.2461 29.2419 34.6259 28.9618 34.906C28.6818 35.1861 28.3019 35.3434 27.9058 35.3434C27.5097 35.3434 27.1299 35.1861 26.8498 34.906C26.5697 34.6259 26.4124 34.2461 26.4124 33.85V33.85ZM18.3271 33.8504V21.7165C18.3271 21.3204 18.4845 20.9405 18.7646 20.6605C19.0446 20.3804 19.4245 20.223 19.8206 20.223C20.2167 20.223 20.5965 20.3804 20.8766 20.6605C21.1567 20.9405 21.314 21.3204 21.314 21.7165V33.8504C21.314 34.2464 21.1567 34.6263 20.8766 34.9064C20.5965 35.1864 20.2167 35.3438 19.8206 35.3438C19.4245 35.3438 19.0446 35.1864 18.7646 34.9064C18.4845 34.6263 18.3271 34.2464 18.3271 33.8504V33.8504ZM34.4977 33.8504V27.9224C34.4977 27.7263 34.5363 27.5321 34.6113 27.351C34.6864 27.1698 34.7964 27.0052 34.935 26.8665C35.0737 26.7279 35.2383 26.6179 35.4195 26.5428C35.6006 26.4678 35.7948 26.4292 35.9909 26.4292C36.187 26.4292 36.3812 26.4678 36.5623 26.5428C36.7435 26.6179 36.9081 26.7279 37.0468 26.8665C37.1854 27.0052 37.2954 27.1698 37.3705 27.351C37.4455 27.5321 37.4841 27.7263 37.4841 27.9224V33.8504C37.4841 34.2464 37.3268 34.6262 37.0468 34.9062C36.7667 35.1863 36.3869 35.3436 35.9909 35.3436C35.5949 35.3436 35.2151 35.1863 34.935 34.9062C34.655 34.6262 34.4977 34.2464 34.4977 33.8504Z" fill="url(#paint2_linear_414:584)"/>
<defs>
<linearGradient id="paint0_linear_414:584" x1="15.333" y1="4.19886" x2="23.8698" y2="35.3709" gradientUnits="userSpaceOnUse">
<stop stop-color="#F15E9E"/>
<stop offset="1" stop-color="#9578FC"/>
</linearGradient>
<linearGradient id="paint1_linear_414:584" x1="27.9285" y1="7.39551" x2="27.9285" y2="42.6412" gradientUnits="userSpaceOnUse">
<stop stop-color="#957DEB"/>
<stop offset="1" stop-opacity="0.25"/>
</linearGradient>
<linearGradient id="paint2_linear_414:584" x1="27.9056" y1="14.6699" x2="27.9056" y2="35.3438" gradientUnits="userSpaceOnUse">
<stop stop-color="white"/>
<stop offset="1" stop-color="white" stop-opacity="0.302"/>
</linearGradient>
</defs>
</svg>
