<svg width="49" height="45" viewBox="0 0 49 45" fill="none" xmlns="http://www.w3.org/2000/svg">
<path d="M25.3498 2.28484L7.4554 7.76923C3.33789 9.03118 1.02302 13.3921 2.28497 17.5096L7.92142 35.9002C9.18337 40.0177 13.5443 42.3326 17.6618 41.0706L35.5562 35.5862C39.6737 34.3243 41.9886 29.9634 40.7267 25.8459L35.0902 7.45527C33.8282 3.33777 29.4673 1.02289 25.3498 2.28484Z" fill="url(#paint0_linear_414:600)"/>
<path d="M35.8906 9.90625H17.1726C12.8655 9.90625 9.37402 13.3978 9.37402 17.7048V36.9418C9.37402 41.2488 12.8655 44.7403 17.1726 44.7403H35.8906C40.1976 44.7403 43.6891 41.2488 43.6891 36.9418V17.7048C43.6891 13.3978 40.1976 9.90625 35.8906 9.90625Z" fill="url(#paint1_linear_414:600)"/>
<g style="mix-blend-mode:darken" opacity="0.05">
<path d="M36.5166 9.90625H17.7985C13.4915 9.90625 10 13.3978 10 17.7048V36.9418C10 41.2488 13.4915 44.7403 17.7985 44.7403H36.5166C40.8236 44.7403 44.3151 41.2488 44.3151 36.9418V17.7048C44.3151 13.3978 40.8236 9.90625 36.5166 9.90625Z" fill="url(#paint2_linear_414:600)"/>
</g>
<path d="M19.6987 33.9711L17.8989 32.5283L24.287 24.5641L29.9558 29.0553L34.8348 22.9561L36.6363 24.3988L30.3227 32.2917L24.6524 27.7982L19.6987 33.9711Z" fill="url(#paint3_linear_414:600)"/>
<path d="M31 23H36.5V27.5" stroke="#F1F0F8" stroke-width="2"/>
<path d="M46.0452 13.1651C47.3468 13.1651 48.4019 12.11 48.4019 10.8084C48.4019 9.5068 47.3468 8.45166 46.0452 8.45166C44.7436 8.45166 43.6885 9.5068 43.6885 10.8084C43.6885 12.11 44.7436 13.1651 46.0452 13.1651Z" fill="white"/>
<g style="mix-blend-mode:darken" opacity="0.05">
<path d="M46.0452 13.1651C47.3468 13.1651 48.4019 12.11 48.4019 10.8084C48.4019 9.5068 47.3468 8.45166 46.0452 8.45166C44.7436 8.45166 43.6885 9.5068 43.6885 10.8084C43.6885 12.11 44.7436 13.1651 46.0452 13.1651Z" fill="#4582FF"/>
</g>
<defs>
<linearGradient id="paint0_linear_414:600" x1="16.4026" y1="5.02704" x2="26.609" y2="38.3284" gradientUnits="userSpaceOnUse">
<stop stop-color="#F15E9E"/>
<stop offset="1" stop-color="#9578FC"/>
</linearGradient>
<linearGradient id="paint1_linear_414:600" x1="26.5316" y1="9.90625" x2="26.5316" y2="44.7403" gradientUnits="userSpaceOnUse">
<stop stop-color="#957DEB"/>
<stop offset="1" stop-opacity="0.25"/>
</linearGradient>
<linearGradient id="paint2_linear_414:600" x1="27.1575" y1="9.90625" x2="27.1575" y2="44.7403" gradientUnits="userSpaceOnUse">
<stop stop-color="#1352D1"/>
<stop offset="1" stop-color="#4582FF" stop-opacity="0"/>
</linearGradient>
<linearGradient id="paint3_linear_414:600" x1="27.2676" y1="22.9561" x2="27.2676" y2="33.9711" gradientUnits="userSpaceOnUse">
<stop stop-color="white"/>
<stop offset="1" stop-color="white" stop-opacity="0.271"/>
</linearGradient>
</defs>
</svg>
