<svg width="44" height="38" viewBox="0 0 44 38" fill="none" xmlns="http://www.w3.org/2000/svg">
<path d="M28.9466 14.4733C28.9466 6.47991 22.4666 0 14.4733 0C6.47991 0 0 6.48028 0 14.4737C0 22.467 6.47991 28.9469 14.4733 28.9469C22.4666 28.9469 28.9466 22.4666 28.9466 14.4733Z" fill="url(#paint0_linear_414:594)"/>
<path d="M43.5334 18.7896C43.5332 22.4753 42.44 26.0782 40.3922 29.1426C38.3444 32.2071 35.4339 34.5955 32.0287 36.0058C28.6235 37.4161 24.8764 37.785 21.2615 37.0658C17.6467 36.3466 14.3262 34.5717 11.7201 31.9654C9.11398 29.3591 7.33918 26.0386 6.62021 22.4236C5.90124 18.8087 6.27036 15.0618 7.68088 11.6566C9.0914 8.25149 11.48 5.34107 14.5446 3.29342C17.6092 1.24576 21.2122 0.152832 24.8979 0.152832C27.3451 0.152832 29.7684 0.634857 32.0294 1.57138C34.2904 2.50791 36.3448 3.8806 38.0753 5.61107C39.8058 7.34155 41.1784 9.39592 42.1149 11.6569C43.0514 13.9179 43.5334 16.3412 43.5334 18.7884" fill="url(#paint1_linear_414:594)"/>
<g style="mix-blend-mode:darken" opacity="0.05">
<path d="M43.5334 18.7896C43.5332 22.4753 42.44 26.0782 40.3922 29.1426C38.3444 32.2071 35.4339 34.5955 32.0287 36.0058C28.6235 37.4161 24.8764 37.785 21.2615 37.0658C17.6467 36.3466 14.3262 34.5717 11.7201 31.9654C9.11398 29.3591 7.33918 26.0386 6.62021 22.4236C5.90124 18.8087 6.27036 15.0618 7.68088 11.6566C9.0914 8.25149 11.48 5.34107 14.5446 3.29342C17.6092 1.24576 21.2122 0.152832 24.8979 0.152832C27.3451 0.152832 29.7684 0.634857 32.0294 1.57138C34.2904 2.50791 36.3448 3.8806 38.0753 5.61107C39.8058 7.34155 41.1784 9.39592 42.1149 11.6569C43.0514 13.9179 43.5334 16.3412 43.5334 18.7884" fill="#4582FF"/>
</g>
<path d="M32.092 12.6494L29.0729 22.191C29.0159 22.3856 28.9108 22.5628 28.7676 22.7063C28.6243 22.8499 28.4474 22.9552 28.253 23.0126L18.7486 25.9946C18.6036 26.0392 18.4491 26.0434 18.3018 26.0068C18.1545 25.9702 18.0199 25.8942 17.9126 25.7868C17.8053 25.6795 17.7293 25.5449 17.6928 25.3976C17.6562 25.2503 17.6606 25.0958 17.7053 24.9508L20.6867 15.39C20.7467 15.197 20.8526 15.0214 20.9955 14.8785C21.1384 14.7355 21.314 14.6295 21.507 14.5694L31.0486 11.5879C31.1956 11.542 31.3523 11.5375 31.5017 11.5749C31.651 11.6124 31.7871 11.6903 31.895 11.8001C32.0029 11.9099 32.0783 12.0474 32.1132 12.1973C32.148 12.3473 32.1409 12.504 32.0924 12.6501" fill="url(#paint2_linear_414:594)"/>
<defs>
<linearGradient id="paint0_linear_414:594" x1="14.4733" y1="0" x2="14.4733" y2="28.9469" gradientUnits="userSpaceOnUse">
<stop stop-color="#F15E9E"/>
<stop offset="1" stop-color="#9578FC"/>
</linearGradient>
<linearGradient id="paint1_linear_414:594" x1="24.8978" y1="0.152832" x2="24.8978" y2="37.424" gradientUnits="userSpaceOnUse">
<stop stop-color="#957DEB"/>
<stop offset="1" stop-opacity="0.25"/>
</linearGradient>
<linearGradient id="paint2_linear_414:594" x1="24.9016" y1="11.5498" x2="24.9016" y2="26.0315" gradientUnits="userSpaceOnUse">
<stop stop-color="white"/>
<stop offset="1" stop-color="#B8A4FF" stop-opacity="0"/>
</linearGradient>
</defs>
</svg>
