<svg width="39" height="42" viewBox="0 0 39 42" fill="none" xmlns="http://www.w3.org/2000/svg">
<path d="M5.32274 7.09304L1.92014 22.3254C1.04507 26.2428 3.51137 30.1278 7.42876 31.0029L19.509 33.7014C23.4263 34.5764 27.3114 32.1102 28.1865 28.1928L31.5891 12.9604C32.4641 9.04302 29.9978 5.15796 26.0805 4.2829L14.0003 1.58442C10.0829 0.709356 6.19781 3.17565 5.32274 7.09304Z" fill="url(#paint0_linear_414:611)"/>
<path d="M27.7753 9.81104H7.26788C3.25394 9.81104 0 13.065 0 17.0789V33.8317C0 37.8457 3.25394 41.0996 7.26788 41.0996H27.7753C31.7892 41.0996 35.0432 37.8457 35.0432 33.8317V17.0789C35.0432 13.065 31.7892 9.81104 27.7753 9.81104Z" fill="url(#paint1_linear_414:611)"/>
<g style="mix-blend-mode:darken" opacity="0.05">
<path d="M27.7753 9.81104H7.26788C3.25394 9.81104 0 13.065 0 17.0789V33.8317C0 37.8457 3.25394 41.0996 7.26788 41.0996H27.7753C31.7892 41.0996 35.0432 37.8457 35.0432 33.8317V17.0789C35.0432 13.065 31.7892 9.81104 27.7753 9.81104Z" fill="#6D54D0"/>
</g>
<path d="M26.8114 21.0762H37.9749C38.1654 21.0762 38.3482 21.1519 38.4829 21.2866C38.6176 21.4213 38.6933 21.6041 38.6933 21.7946V29.6995C38.6933 29.89 38.6176 30.0728 38.4829 30.2075C38.3482 30.3422 38.1654 30.4179 37.9749 30.4179H26.8114C25.5727 30.4179 24.3846 29.9259 23.5086 29.0499C22.6326 28.174 22.1405 26.986 22.1404 25.7472V25.7472C22.1404 24.5084 22.6325 23.3203 23.5085 22.4443C24.3845 21.5683 25.5726 21.0762 26.8114 21.0762V21.0762Z" fill="url(#paint2_linear_414:611)"/>
<g style="mix-blend-mode:darken" opacity="0.05">
<path d="M26.8114 21.0762H37.9749C38.1654 21.0762 38.3482 21.1519 38.4829 21.2866C38.6176 21.4213 38.6933 21.6041 38.6933 21.7946V29.6995C38.6933 29.89 38.6176 30.0728 38.4829 30.2075C38.3482 30.3422 38.1654 30.4179 37.9749 30.4179H26.8114C25.5727 30.4179 24.3846 29.9259 23.5086 29.0499C22.6326 28.174 22.1405 26.986 22.1404 25.7472V25.7472C22.1404 24.5084 22.6325 23.3203 23.5085 22.4443C24.3845 21.5683 25.5726 21.0762 26.8114 21.0762V21.0762Z" fill="#6D54D0"/>
</g>
<path d="M27.271 27.4029C28.2153 27.4029 28.9808 26.6374 28.9808 25.6932C28.9808 24.7489 28.2153 23.9834 27.271 23.9834C26.3268 23.9834 25.5613 24.7489 25.5613 25.6932C25.5613 26.6374 26.3268 27.4029 27.271 27.4029Z" fill="url(#paint3_linear_414:611)"/>
<path d="M18.2517 19.6212C18.9962 19.6212 19.5999 19.0176 19.5999 18.273C19.5999 17.5284 18.9962 16.9248 18.2517 16.9248H8.55995C7.81536 16.9248 7.21176 17.5284 7.21176 18.273C7.21176 19.0176 7.81536 19.6212 8.55995 19.6212H18.2517Z" fill="url(#paint4_linear_414:611)"/>
<defs>
<linearGradient id="paint0_linear_414:611" x1="3.62144" y1="14.7092" x2="29.8878" y2="20.5766" gradientUnits="userSpaceOnUse">
<stop stop-color="#F15E9E"/>
<stop offset="1" stop-color="#9578FC"/>
</linearGradient>
<linearGradient id="paint1_linear_414:611" x1="17.5216" y1="9.81104" x2="17.5216" y2="41.0996" gradientUnits="userSpaceOnUse">
<stop stop-color="#957DEB"/>
<stop offset="1" stop-opacity="0.25"/>
</linearGradient>
<linearGradient id="paint2_linear_414:611" x1="30.4169" y1="21.0762" x2="30.4169" y2="30.4179" gradientUnits="userSpaceOnUse">
<stop stop-color="#957DEB"/>
<stop offset="1" stop-opacity="0.25"/>
</linearGradient>
<linearGradient id="paint3_linear_414:611" x1="27.271" y1="23.9834" x2="27.271" y2="27.4029" gradientUnits="userSpaceOnUse">
<stop stop-color="white"/>
<stop offset="1" stop-color="white" stop-opacity="0.2"/>
</linearGradient>
<linearGradient id="paint4_linear_414:611" x1="19.5999" y1="18.273" x2="7.21176" y2="18.273" gradientUnits="userSpaceOnUse">
<stop stop-color="white"/>
<stop offset="1" stop-color="white" stop-opacity="0"/>
</linearGradient>
</defs>
</svg>
