<svg width="40" height="40" viewBox="0 0 40 40" fill="none" xmlns="http://www.w3.org/2000/svg">
<rect width="40" height="40" rx="20" fill="#F7931A"/>
<path d="M29.1932 17.5186C29.5902 14.6732 27.4728 13.2175 24.5613 12.1588L25.4877 8.32089L23.1717 7.79152L22.2453 11.4971C21.6498 11.3647 20.9881 11.2324 20.3925 11.0339L21.3189 7.26216L19.003 6.66663L18.0766 10.5045C17.5472 10.3722 13.3785 9.31344 13.3785 9.31344L12.7829 11.7617C12.7829 11.7617 14.5034 12.1588 14.4372 12.1588C15.3636 12.4234 15.5621 13.019 15.4959 13.4822L12.9153 23.9371C12.7829 24.2018 12.5183 24.665 11.8566 24.4665C11.8566 24.5326 10.1361 24.0694 10.1361 24.0694L9.01123 26.7163C9.01123 26.7163 13.18 27.775 13.7093 27.9073L12.7168 31.7452L15.0327 32.3407L15.9591 28.5029C16.6208 28.7014 17.2164 28.8337 17.8119 28.966L16.8855 32.7378L19.2015 33.3333L20.194 29.4954C24.1642 30.2233 27.1419 29.9586 28.3992 26.3854C29.3917 23.4739 28.333 21.8196 26.2817 20.7609C27.7375 20.6286 28.8623 19.636 29.1932 17.5186ZM23.8996 24.9958C23.1717 27.9073 18.3413 26.3192 16.7532 25.9222L18.0104 20.8271C19.5985 21.2241 24.6274 21.952 23.8996 24.9958ZM24.6274 17.5186C23.9657 20.1654 19.9293 18.842 18.6059 18.5111L19.7308 13.8792C21.0542 14.1439 25.2891 14.7394 24.6274 17.5186Z" fill="black"/>
</svg>
