<svg width="40" height="40" viewBox="0 0 40 40" fill="none" xmlns="http://www.w3.org/2000/svg">
<path d="M39.8915 20.0003C39.8915 30.9879 30.9846 39.8951 19.9972 39.8951C9.00961 39.8951 0.102539 30.9879 0.102539 20.0003C0.102539 9.0129 9.00961 0.105835 19.9972 0.105835C30.9845 0.105835 39.8915 9.0129 39.8915 20.0003" fill="white" fill-opacity="0.2"/>
<g opacity="0.8">
<path d="M19.9334 10.7693L19.8105 11.187V23.3067L19.9334 23.4293L25.5593 20.1039L19.9334 10.7693Z" fill="white"/>
<path d="M19.9334 10.7693L14.3076 20.1039L19.9334 23.4294V17.5468V10.7693Z" fill="white"/>
<path d="M19.9335 25.2597L19.8643 25.3441V29.6614L19.9335 29.8636L25.5627 21.9359L19.9335 25.2597Z" fill="white"/>
<path d="M19.9334 29.8637V25.2597L14.3076 21.9359L19.9334 29.8637Z" fill="white"/>
<path d="M19.9333 23.4293L25.5591 20.104L19.9333 17.5469V23.4293Z" fill="white"/>
<path d="M14.3076 20.104L19.9334 23.4294V17.5469L14.3076 20.104Z" fill="white"/>
</g>
</svg>
