<svg width="40" height="40" viewBox="0 0 40 40" fill="none" xmlns="http://www.w3.org/2000/svg">
<path opacity="0.5" d="M20 40C31.0457 40 40 31.0457 40 20C40 8.95431 31.0457 0 20 0C8.95431 0 0 8.95431 0 20C0 31.0457 8.95431 40 20 40Z" fill="#017F04"/>
<path d="M21.7016 23.1122L20.6198 19.8076L21.9715 18.0093L21.3366 16.0667L21.2948 16.0353L19.9643 17.8055L18.1478 12.2567L14.5833 14.5715L16.9504 21.815L15.9036 23.2076L16.5591 25.2097L17.6051 23.8183L19.0002 28.0872L28.4867 21.9266L27.6237 19.2663L21.7016 23.1122" fill="#017F04"/>
<path fill-rule="evenodd" clip-rule="evenodd" d="M20 33.8461C27.647 33.8461 33.8461 27.647 33.8461 20C33.8461 12.3529 27.647 6.15381 20 6.15381C12.3529 6.15381 6.15381 12.3529 6.15381 20C6.15381 27.647 12.3529 33.8461 20 33.8461Z" stroke="#017F04"/>
</svg>
