<svg width="40" height="40" viewBox="0 0 40 40" fill="none" xmlns="http://www.w3.org/2000/svg">
<path opacity="0.5" d="M20 40C31.0457 40 40 31.0457 40 20C40 8.95431 31.0457 0 20 0C8.95431 0 0 8.95431 0 20C0 31.0457 8.95431 40 20 40Z" fill="#1276A7"/>
<path d="M22.4184 11.266C21.1667 11.9786 20.4255 13.2655 20.4255 14.6225C20.4255 15.3351 20.7208 16.0532 21.0905 16.6939C21.3858 17.2663 21.5306 18.2651 20.4999 18.7654C19.7644 19.1919 18.8022 18.9076 18.3622 18.1931C17.922 17.6208 17.4057 17.0485 16.7407 16.6219C15.4889 15.9093 14.0123 15.9093 12.7604 16.6219C11.5086 17.3346 10.7693 18.6247 10.7693 19.982C10.7693 21.3394 11.5048 22.6258 12.7601 23.3404C14.0119 24.053 15.4886 24.053 16.7404 23.3404C17.4054 22.9822 17.9216 22.4136 18.2876 21.7692C18.5829 21.2689 19.3945 20.6246 20.4253 21.1969C21.1608 21.6234 21.3818 22.5558 21.0159 23.2684C20.6463 23.9127 20.4253 24.6272 20.4253 25.3399C20.4253 26.6987 21.1608 27.9837 22.4183 28.6964C23.67 29.409 25.1467 29.409 26.3985 28.6964C27.6504 27.9837 28.3917 26.6969 28.3917 25.3399C28.3917 23.9828 27.6543 22.6961 26.3987 21.9815C25.7337 21.6234 24.9964 21.4812 24.1866 21.4812C23.5216 21.4812 22.6394 21.0548 22.6394 19.982C22.6394 19.1236 23.3044 18.4829 24.1866 18.4829C24.9221 18.4829 25.7337 18.3407 26.3987 17.9826C27.6505 17.2699 28.3917 15.9831 28.3917 14.6262C28.3917 13.2692 27.6543 11.9824 26.3987 11.2697C25.8081 10.9115 25.0726 10.7694 24.4079 10.7694C23.7467 10.7657 23.0055 10.9115 22.4187 11.266" fill="#1276A7"/>
</svg>
