<svg width="92" height="29" viewBox="0 0 92 29" fill="none" xmlns="http://www.w3.org/2000/svg">
<path d="M20.0379 0.000979438C25.7685 0.000979438 31.499 0.000979438 37.2296 0.000979438C37.8386 -0.0150713 38.4363 0.166523 38.9335 0.518582C40.3171 1.52559 40.1942 3.39863 38.6918 4.24049C38.2338 4.4918 37.7176 4.61756 37.1954 4.60502C34.7101 4.60502 32.2261 4.60502 29.7435 4.60502C28.3921 4.60502 27.3085 5.45091 27.091 6.75197C26.9953 7.33144 26.9953 7.92268 27.091 8.50215C27.199 9.10783 27.5201 9.65492 27.9962 10.0446C28.4723 10.4343 29.072 10.6408 29.6871 10.6269C32.2207 10.6269 34.755 10.6269 37.29 10.6269C37.9694 10.6122 38.6295 10.8538 39.1389 11.3036C40.2687 12.3006 40.1237 13.9319 38.8408 14.7496C38.3556 15.0562 37.7914 15.2144 37.2175 15.2048H29.7656C28.1544 15.2048 27.0326 16.3327 27.0306 17.9479V19.2308C27.0263 19.5801 27.0919 19.9267 27.2236 20.2502C27.3552 20.5737 27.5503 20.8676 27.7973 21.1146C28.0443 21.3616 28.3382 21.5567 28.6617 21.6883C28.9852 21.82 29.3318 21.8856 29.6811 21.8813C32.1731 21.8813 34.6651 21.8813 37.1571 21.8813C37.5571 21.8619 37.9563 21.9338 38.3244 22.0916C38.6925 22.2493 39.0199 22.4887 39.2819 22.7916C39.6046 23.1343 39.8159 23.5669 39.8878 24.0321C39.9597 24.4974 39.8889 24.9736 39.6847 25.3977C39.498 25.8573 39.1772 26.25 38.764 26.5245C38.3509 26.799 37.8646 26.9425 37.3686 26.9365C36.3716 26.9707 35.3727 26.9365 34.3737 26.9365L24.9844 26.9244C23.355 26.9244 22.2231 25.7724 22.2252 24.143C22.2252 18.5884 22.2252 13.0337 22.2252 7.47903C22.2287 7.1301 22.1624 6.78399 22.0303 6.46104C21.8981 6.13809 21.7027 5.84481 21.4556 5.59844C21.2085 5.35208 20.9146 5.15759 20.5913 5.02642C20.2679 4.89525 19.9216 4.83004 19.5727 4.83462C19.0783 4.81405 18.5831 4.82683 18.0904 4.87289C17.4665 4.95584 16.8944 5.2638 16.4816 5.73889C16.0688 6.21399 15.8438 6.8235 15.8488 7.45285C15.8347 8.38534 15.8488 9.31581 15.8488 10.2483C15.8488 14.9396 15.8488 19.6303 15.8488 24.3202C15.8616 24.7207 15.7833 25.1187 15.6196 25.4844C15.456 25.8501 15.2114 26.1737 14.9042 26.4309C13.718 27.4379 11.9758 26.9304 11.4059 25.3998C11.2691 25.0117 11.2009 24.6028 11.2045 24.1913C11.1904 18.6367 11.2045 13.08 11.1944 7.52535C11.2125 6.96283 11.0464 6.4098 10.7214 5.9503C10.3964 5.49081 9.93026 5.14998 9.39386 4.97963C8.60685 4.73482 7.76404 4.73482 6.97703 4.97963C6.43384 5.14567 5.96042 5.48594 5.6299 5.94787C5.29937 6.4098 5.13013 6.96771 5.14831 7.53542C5.14831 11.5957 5.14831 15.6566 5.14831 19.7182C5.14831 21.271 5.14831 22.8238 5.14831 24.3766C5.14759 24.7194 5.07848 25.0585 4.94504 25.3742C4.81159 25.6899 4.61648 25.9758 4.37114 26.2151C4.12581 26.4545 3.83518 26.6424 3.51628 26.768C3.19738 26.8936 2.85662 26.9543 2.51397 26.9465C1.86642 26.9238 1.25087 26.6593 0.788615 26.2053C0.326361 25.7512 0.0509277 25.1405 0.0165886 24.4935C0.0165886 24.3928 0.0165886 24.292 0.0165886 24.1913C0.0125606 17.0597 0.0266587 9.92606 0.000476466 2.79442C-0.00640065 2.42616 0.061231 2.06031 0.199309 1.71884C0.337386 1.37738 0.543061 1.06734 0.803976 0.807368C1.06489 0.547393 1.37567 0.34284 1.71763 0.205996C2.05959 0.0691525 2.42568 0.00284251 2.79392 0.0110495C8.54193 0.0311897 14.2899 0.0110495 20.0379 0.0110495V0.000979438Z" fill="url(#paint0_linear)"/>
<path d="M47.448 28.38C45.4467 28.38 43.914 27.81 42.85 26.67C41.8113 25.53 41.292 23.9213 41.292 21.844V7.556C41.292 5.47867 41.8113 3.87 42.85 2.73C43.914 1.59 45.4467 1.02 47.448 1.02C49.4493 1.02 50.9693 1.59 52.008 2.73C53.072 3.87 53.604 5.47867 53.604 7.556V10.368H49.652V7.29C49.652 5.64333 48.9553 4.82 47.562 4.82C46.1687 4.82 45.472 5.64333 45.472 7.29V22.148C45.472 23.7693 46.1687 24.58 47.562 24.58C48.9553 24.58 49.652 23.7693 49.652 22.148V18.082H53.604V21.844C53.604 23.9213 53.072 25.53 52.008 26.67C50.9693 27.81 49.4493 28.38 47.448 28.38Z" fill="url(#paint1_linear)"/>
<path d="M62.2211 28.38C60.1691 28.38 58.5984 27.7973 57.5091 26.632C56.4198 25.4667 55.8751 23.82 55.8751 21.692V7.708C55.8751 5.58 56.4198 3.93333 57.5091 2.768C58.5984 1.60267 60.1691 1.02 62.2211 1.02C64.2731 1.02 65.8438 1.60267 66.9331 2.768C68.0224 3.93333 68.5671 5.58 68.5671 7.708V21.692C68.5671 23.82 68.0224 25.4667 66.9331 26.632C65.8438 27.7973 64.2731 28.38 62.2211 28.38ZM62.2211 24.58C63.6651 24.58 64.3871 23.706 64.3871 21.958V7.442C64.3871 5.694 63.6651 4.82 62.2211 4.82C60.7771 4.82 60.0551 5.694 60.0551 7.442V21.958C60.0551 23.706 60.7771 24.58 62.2211 24.58Z" fill="url(#paint2_linear)"/>
<path d="M71.3939 1.4H75.5739V28H71.3939V1.4Z" fill="url(#paint3_linear)"/>
<path d="M78.7045 1.4H83.9485L88.0145 17.322H88.0905V1.4H91.8145V28H87.5205L82.5045 8.582H82.4285V28H78.7045V1.4Z" fill="url(#paint4_linear)"/>
<defs>
<linearGradient id="paint0_linear" x1="6.5" y1="-4" x2="23" y2="28.5" gradientUnits="userSpaceOnUse">
<stop stop-color="#957DEB"/>
<stop offset="1" stop-color="#F15E9E"/>
</linearGradient>
<linearGradient id="paint1_linear" x1="51.25" y1="10.675" x2="79.5021" y2="27.3276" gradientUnits="userSpaceOnUse">
<stop offset="0.0001" stop-color="#957DEB"/>
<stop offset="1" stop-color="#957DEB"/>
</linearGradient>
<linearGradient id="paint2_linear" x1="51.25" y1="10.675" x2="79.5021" y2="27.3276" gradientUnits="userSpaceOnUse">
<stop offset="0.0001" stop-color="#957DEB"/>
<stop offset="1" stop-color="#957DEB"/>
</linearGradient>
<linearGradient id="paint3_linear" x1="51.25" y1="10.675" x2="79.5021" y2="27.3276" gradientUnits="userSpaceOnUse">
<stop offset="0.0001" stop-color="#957DEB"/>
<stop offset="1" stop-color="#957DEB"/>
</linearGradient>
<linearGradient id="paint4_linear" x1="51.25" y1="10.675" x2="79.5021" y2="27.3276" gradientUnits="userSpaceOnUse">
<stop offset="0.0001" stop-color="#957DEB"/>
<stop offset="1" stop-color="#957DEB"/>
</linearGradient>
</defs>
</svg>
