<svg width="25" height="24" viewBox="0 0 25 24" fill="none" xmlns="http://www.w3.org/2000/svg">
<path d="M14.7495 19.4993V14.9992C14.7495 14.8003 14.6704 14.6096 14.5298 14.4689C14.3891 14.3283 14.1984 14.2492 13.9995 14.2492H10.9995C10.8005 14.2492 10.6098 14.3283 10.4691 14.4689C10.3285 14.6096 10.2495 14.8003 10.2495 14.9992V19.4993C10.2495 19.6982 10.1704 19.889 10.0298 20.0296C9.88918 20.1703 9.69844 20.2493 9.49954 20.2493L5.00009 20.2499C4.90159 20.2499 4.80406 20.2305 4.71305 20.1929C4.62205 20.1552 4.53936 20.0999 4.4697 20.0303C4.40005 19.9606 4.3448 19.878 4.3071 19.787C4.2694 19.696 4.25 19.5984 4.25 19.4999V10.8318C4.25 10.7273 4.27183 10.6239 4.3141 10.5284C4.35637 10.4328 4.41814 10.3471 4.49545 10.2769L11.9949 3.45797C12.133 3.33244 12.3129 3.26288 12.4995 3.26288C12.686 3.26287 12.8659 3.33242 13.004 3.45793L20.5045 10.2768C20.5818 10.3471 20.6436 10.4328 20.6859 10.5284C20.7282 10.624 20.75 10.7273 20.75 10.8318V19.4999C20.75 19.5984 20.7306 19.696 20.6929 19.787C20.6552 19.878 20.6 19.9607 20.5303 20.0303C20.4606 20.0999 20.378 20.1552 20.2869 20.1929C20.1959 20.2306 20.0984 20.2499 19.9999 20.2499L15.4994 20.2493C15.3005 20.2493 15.1097 20.1703 14.9691 20.0296C14.8285 19.889 14.7494 19.6982 14.7495 19.4993V19.4993Z" fill="#00B670" fill-opacity="0.1" stroke="white" stroke-width="2" stroke-linecap="round" stroke-linejoin="round"/>
</svg>
