<svg width="20" height="20" viewBox="0 0 20 20" fill="none" xmlns="http://www.w3.org/2000/svg">
<mask id="path-1-inside-1_268:554" fill="white">
<path d="M16.7246 12.3893V6.72638C16.7236 5.89556 16.3932 5.09901 15.8059 4.51142C15.2185 3.92383 14.4221 3.59315 13.5913 3.59183H10.1281L13.0414 0.883438L12.3952 0.188538L8.22461 4.06299L12.3952 7.93745L13.0414 7.24255L10.1268 4.53419H13.5913C14.1707 4.53452 14.7264 4.76476 15.1362 5.17436C15.546 5.58396 15.7766 6.13943 15.7773 6.71886V12.3806C14.8316 12.501 13.9673 12.9772 13.3601 13.7122C12.753 14.4472 12.4487 15.3859 12.509 16.3373C12.5693 17.2887 12.9898 18.1814 13.685 18.8339C14.3801 19.4863 15.2976 19.8495 16.251 19.8495C17.2043 19.8495 18.1218 19.4863 18.8169 18.8339C19.512 18.1814 19.9326 17.2887 19.9929 16.3373C20.0533 15.3859 19.7489 14.4472 19.1418 13.7122C18.5347 12.9772 17.6703 12.501 16.7246 12.3806V12.3893ZM16.2484 18.8884C15.6953 18.8881 15.1546 18.7239 14.6948 18.4164C14.235 18.1089 13.8767 17.672 13.6652 17.1608C13.4536 16.6497 13.3984 16.0873 13.5065 15.5448C13.6146 15.0023 13.8811 14.504 14.2723 14.113C14.6635 13.7219 15.1619 13.4556 15.7045 13.3478C16.247 13.24 16.8093 13.2955 17.3204 13.5072C17.8314 13.719 18.2682 14.0775 18.5755 14.5374C18.8828 14.9974 19.0468 15.5381 19.0468 16.0913C19.0448 16.8324 18.7492 17.5425 18.2247 18.066C17.7002 18.5896 16.9895 18.884 16.2484 18.8846V18.8884Z"/>
</mask>
<path d="M16.7246 12.3893V6.72638C16.7236 5.89556 16.3932 5.09901 15.8059 4.51142C15.2185 3.92383 14.4221 3.59315 13.5913 3.59183H10.1281L13.0414 0.883438L12.3952 0.188538L8.22461 4.06299L12.3952 7.93745L13.0414 7.24255L10.1268 4.53419H13.5913C14.1707 4.53452 14.7264 4.76476 15.1362 5.17436C15.546 5.58396 15.7766 6.13943 15.7773 6.71886V12.3806C14.8316 12.501 13.9673 12.9772 13.3601 13.7122C12.753 14.4472 12.4487 15.3859 12.509 16.3373C12.5693 17.2887 12.9898 18.1814 13.685 18.8339C14.3801 19.4863 15.2976 19.8495 16.251 19.8495C17.2043 19.8495 18.1218 19.4863 18.8169 18.8339C19.512 18.1814 19.9326 17.2887 19.9929 16.3373C20.0533 15.3859 19.7489 14.4472 19.1418 13.7122C18.5347 12.9772 17.6703 12.501 16.7246 12.3806V12.3893ZM16.2484 18.8884C15.6953 18.8881 15.1546 18.7239 14.6948 18.4164C14.235 18.1089 13.8767 17.672 13.6652 17.1608C13.4536 16.6497 13.3984 16.0873 13.5065 15.5448C13.6146 15.0023 13.8811 14.504 14.2723 14.113C14.6635 13.7219 15.1619 13.4556 15.7045 13.3478C16.247 13.24 16.8093 13.2955 17.3204 13.5072C17.8314 13.719 18.2682 14.0775 18.5755 14.5374C18.8828 14.9974 19.0468 15.5381 19.0468 16.0913C19.0448 16.8324 18.7492 17.5425 18.2247 18.066C17.7002 18.5896 16.9895 18.884 16.2484 18.8846V18.8884Z" fill="white"/>
<path d="M16.7246 6.72638L18.7246 6.72638L18.7246 6.72399L16.7246 6.72638ZM13.5913 3.59183L13.5945 1.59183H13.5913V3.59183ZM10.1281 3.59183L8.76631 2.12704L5.03934 5.59183L10.1281 5.59183V3.59183ZM13.0414 0.883438L14.4031 2.34823L15.8681 0.986333L14.506 -0.478472L13.0414 0.883438ZM12.3952 0.188538L13.8599 -1.17337L12.4986 -2.63734L11.034 -1.27675L12.3952 0.188538ZM8.22461 4.06299L6.86338 2.59771L5.28609 4.06299L6.86338 5.52828L8.22461 4.06299ZM12.3952 7.93745L11.034 9.40273L12.4986 10.7633L13.8599 9.29936L12.3952 7.93745ZM13.0414 7.24255L14.506 8.60446L15.8684 7.13932L14.4028 5.77745L13.0414 7.24255ZM10.1268 4.53419V2.53419H5.03642L8.76537 5.99929L10.1268 4.53419ZM13.5913 4.53419L13.5925 2.53419H13.5913V4.53419ZM15.7773 6.71886L17.7773 6.71886L17.7773 6.71658L15.7773 6.71886ZM15.7773 12.3806L16.0299 14.3645L17.7773 14.142V12.3806H15.7773ZM16.251 19.8495L16.251 17.8495L16.251 19.8495ZM16.7246 12.3806L16.9773 10.3966L14.7246 10.1097V12.3806H16.7246ZM16.2484 18.8884L16.2475 20.8884L18.2484 20.8893V18.8884H16.2484ZM19.0468 16.0913L21.0468 16.0966L21.0468 16.0913L19.0468 16.0913ZM16.2484 18.8846L16.2467 16.8846L14.2484 16.8864V18.8846H16.2484ZM18.7246 12.3893V6.72638H14.7246V12.3893H18.7246ZM18.7246 6.72399C18.723 5.36371 18.1821 4.05955 17.2204 3.09749L14.3914 5.92535C14.6044 6.13848 14.7243 6.42741 14.7246 6.72876L18.7246 6.72399ZM17.2204 3.09749C16.2587 2.13539 14.9547 1.594 13.5945 1.59183L13.5881 5.59183C13.8895 5.59231 14.1784 5.71227 14.3914 5.92535L17.2204 3.09749ZM13.5913 1.59183H10.1281V5.59183H13.5913V1.59183ZM11.4898 5.05662L14.4031 2.34823L11.6796 -0.581356L8.76631 2.12704L11.4898 5.05662ZM14.506 -0.478472L13.8599 -1.17337L10.9306 1.55045L11.5767 2.24535L14.506 -0.478472ZM11.034 -1.27675L6.86338 2.59771L9.58584 5.52828L13.7565 1.65382L11.034 -1.27675ZM6.86338 5.52828L11.034 9.40273L13.7565 6.47216L9.58584 2.59771L6.86338 5.52828ZM13.8599 9.29936L14.506 8.60446L11.5767 5.88064L10.9306 6.57554L13.8599 9.29936ZM14.4028 5.77745L11.4882 3.0691L8.76537 5.99929L11.68 8.70764L14.4028 5.77745ZM10.1268 6.53419H13.5913V2.53419H10.1268V6.53419ZM13.5902 6.53419C13.6398 6.53422 13.6873 6.55393 13.7224 6.58898L16.55 3.75974C15.7654 2.97559 14.7017 2.53483 13.5925 2.53419L13.5902 6.53419ZM13.7224 6.58898C13.7575 6.62409 13.7772 6.67164 13.7773 6.72115L17.7773 6.71658C17.776 5.60723 17.3345 4.54383 16.55 3.75974L13.7224 6.58898ZM13.7773 6.71886V12.3806H17.7773V6.71886H13.7773ZM15.5246 10.3966C14.0744 10.5813 12.7491 11.3114 11.8181 12.4385L14.9021 14.9859C15.1854 14.6429 15.5887 14.4207 16.0299 14.3645L15.5246 10.3966ZM11.8181 12.4385C10.8872 13.5656 10.4205 15.005 10.513 16.4639L14.505 16.2107C14.4768 15.7668 14.6188 15.3288 14.9021 14.9859L11.8181 12.4385ZM10.513 16.4639C10.6055 17.9228 11.2503 19.2917 12.3162 20.2922L15.0537 17.3756C14.7293 17.0712 14.5332 16.6547 14.505 16.2107L10.513 16.4639ZM12.3162 20.2922C13.3821 21.2926 14.7891 21.8495 16.251 21.8495L16.251 17.8495C15.8062 17.8495 15.378 17.68 15.0537 17.3756L12.3162 20.2922ZM16.251 21.8495C17.7129 21.8495 19.1198 21.2926 20.1857 20.2922L17.4482 17.3756C17.1238 17.68 16.6957 17.8495 16.251 17.8495V21.8495ZM20.1857 20.2922C21.2515 19.2917 21.8964 17.9229 21.9889 16.4639L17.9969 16.2107C17.9688 16.6546 17.7726 17.0711 17.4482 17.3756L20.1857 20.2922ZM21.9889 16.4639C22.0814 15.005 21.6147 13.5656 20.6838 12.4385L17.5998 14.9859C17.8831 15.3288 18.0251 15.7668 17.9969 16.2107L21.9889 16.4639ZM20.6838 12.4385C19.7528 11.3114 18.4275 10.5813 16.9773 10.3966L16.472 14.3645C16.9132 14.4207 17.3165 14.6429 17.5998 14.9859L20.6838 12.4385ZM14.7246 12.3806V12.3893H18.7246V12.3806H14.7246ZM16.2493 16.8884C16.0917 16.8883 15.9376 16.8415 15.8066 16.7539L13.583 20.0789C14.3716 20.6063 15.2989 20.888 16.2475 20.8884L16.2493 16.8884ZM15.8066 16.7539C15.6755 16.6662 15.5734 16.5417 15.5132 16.3961L11.8171 17.9256C12.1799 18.8022 12.7944 19.5515 13.583 20.0789L15.8066 16.7539ZM15.5132 16.3961C15.4529 16.2504 15.4372 16.0901 15.4679 15.9355L11.545 15.1541C11.3597 16.0845 11.4544 17.049 11.8171 17.9256L15.5132 16.3961ZM15.4679 15.9355C15.4987 15.781 15.5747 15.639 15.6862 15.5275L12.8584 12.6984C12.1874 13.3691 11.7304 14.2237 11.545 15.1541L15.4679 15.9355ZM15.6862 15.5275C15.7977 15.4161 15.9397 15.3402 16.0943 15.3095L15.3146 11.3862C14.3841 11.5711 13.5294 12.0278 12.8584 12.6984L15.6862 15.5275ZM16.0943 15.3095C16.2489 15.2787 16.4091 15.2945 16.5548 15.3549L18.0859 11.6595C17.2095 11.2964 16.2451 11.2013 15.3146 11.3862L16.0943 15.3095ZM16.5548 15.3549C16.7005 15.4152 16.825 15.5174 16.9125 15.6485L20.2385 13.4264C19.7115 12.6375 18.9623 12.0227 18.0859 11.6595L16.5548 15.3549ZM16.9125 15.6485C17.0001 15.7796 17.0468 15.9336 17.0468 16.0913L21.0468 16.0913C21.0468 15.1426 20.7655 14.2152 20.2385 13.4264L16.9125 15.6485ZM17.0468 16.0859C17.0462 16.2978 16.9617 16.5008 16.8117 16.6506L19.6376 19.4815C20.5366 18.5841 21.0434 17.367 21.0468 16.0966L17.0468 16.0859ZM16.8117 16.6506C16.6617 16.8003 16.4585 16.8844 16.2467 16.8846L16.2502 20.8846C17.5206 20.8835 18.7386 20.3789 19.6376 19.4815L16.8117 16.6506ZM14.2484 18.8846V18.8884H18.2484V18.8846H14.2484Z" fill="white" mask="url(#path-1-inside-1_268:554)"/>
<mask id="path-3-inside-2_268:554" fill="white">
<path d="M6.95842 12.903L9.87422 15.6126H6.40849C5.82928 15.612 5.27397 15.3816 4.86441 14.972C4.45484 14.5625 4.22445 14.0072 4.22378 13.428V7.4688C5.16941 7.34821 6.03362 6.87195 6.64062 6.1369C7.24762 5.40184 7.55182 4.46317 7.49141 3.51181C7.43099 2.56044 7.01046 1.66781 6.31535 1.01544C5.62024 0.363078 4.70278 0 3.74949 0C2.79621 0 1.8787 0.363078 1.1836 1.01544C0.488493 1.66781 0.0679596 2.56044 0.00754295 3.51181C-0.0528737 4.46317 0.251368 5.40184 0.858366 6.1369C1.46536 6.87195 2.32954 7.34821 3.27517 7.4688V13.428C3.27616 14.2588 3.60656 15.0553 4.19392 15.6429C4.78128 16.2305 5.57768 16.5612 6.40849 16.5625H9.873L6.95842 19.2709L7.60579 19.9658L11.7777 16.0913L7.60579 12.2169L6.95842 12.903ZM0.951775 3.77056C0.951775 3.21734 1.11582 2.67658 1.42317 2.2166C1.73052 1.75661 2.16734 1.3981 2.67844 1.18639C3.18954 0.974686 3.75195 0.919301 4.29454 1.02723C4.83712 1.13515 5.33553 1.40155 5.72671 1.79273C6.11789 2.18391 6.38429 2.68232 6.49221 3.2249C6.60014 3.76749 6.54475 4.32986 6.33305 4.84096C6.12134 5.35206 5.76283 5.78893 5.30285 6.09628C4.84286 6.40362 4.30206 6.56767 3.74885 6.56767C3.00623 6.56833 2.29377 6.27405 1.76808 5.74953C1.24239 5.22501 0.946513 4.51317 0.945519 3.77056H0.951775Z"/>
</mask>
<path d="M6.95842 12.903L9.87422 15.6126H6.40849C5.82928 15.612 5.27397 15.3816 4.86441 14.972C4.45484 14.5625 4.22445 14.0072 4.22378 13.428V7.4688C5.16941 7.34821 6.03362 6.87195 6.64062 6.1369C7.24762 5.40184 7.55182 4.46317 7.49141 3.51181C7.43099 2.56044 7.01046 1.66781 6.31535 1.01544C5.62024 0.363078 4.70278 0 3.74949 0C2.79621 0 1.8787 0.363078 1.1836 1.01544C0.488493 1.66781 0.0679596 2.56044 0.00754295 3.51181C-0.0528737 4.46317 0.251368 5.40184 0.858366 6.1369C1.46536 6.87195 2.32954 7.34821 3.27517 7.4688V13.428C3.27616 14.2588 3.60656 15.0553 4.19392 15.6429C4.78128 16.2305 5.57768 16.5612 6.40849 16.5625H9.873L6.95842 19.2709L7.60579 19.9658L11.7777 16.0913L7.60579 12.2169L6.95842 12.903ZM0.951775 3.77056C0.951775 3.21734 1.11582 2.67658 1.42317 2.2166C1.73052 1.75661 2.16734 1.3981 2.67844 1.18639C3.18954 0.974686 3.75195 0.919301 4.29454 1.02723C4.83712 1.13515 5.33553 1.40155 5.72671 1.79273C6.11789 2.18391 6.38429 2.68232 6.49221 3.2249C6.60014 3.76749 6.54475 4.32986 6.33305 4.84096C6.12134 5.35206 5.76283 5.78893 5.30285 6.09628C4.84286 6.40362 4.30206 6.56767 3.74885 6.56767C3.00623 6.56833 2.29377 6.27405 1.76808 5.74953C1.24239 5.22501 0.946513 4.51317 0.945519 3.77056H0.951775Z" fill="white"/>
<path d="M6.95842 12.903L5.50372 11.5305L4.12073 12.9962L5.59695 14.3681L6.95842 12.903ZM9.87422 15.6126V17.6126H14.9644L11.2357 14.1476L9.87422 15.6126ZM6.40849 15.6126L6.40621 17.6126H6.40849V15.6126ZM4.22378 13.428L2.22378 13.428L2.22379 13.4302L4.22378 13.428ZM4.22378 7.4688L3.97078 5.48486L2.22378 5.70765V7.4688H4.22378ZM3.27517 7.4688H5.27517V5.70765L3.52817 5.48486L3.27517 7.4688ZM3.27517 13.428L1.27516 13.428L1.27517 13.4303L3.27517 13.428ZM6.40849 16.5625L6.40531 18.5625H6.40849V16.5625ZM9.873 16.5625L11.2344 18.0276L14.9634 14.5625H9.873V16.5625ZM6.95842 19.2709L5.59699 17.8058L4.13003 19.1689L5.49505 20.6341L6.95842 19.2709ZM7.60579 19.9658L6.14242 21.329L7.50359 22.7901L8.96679 21.4313L7.60579 19.9658ZM11.7777 16.0913L13.1387 17.5568L14.7167 16.0913L13.1387 14.6258L11.7777 16.0913ZM7.60579 12.2169L8.96679 10.7514L7.51283 9.40111L6.1511 10.8443L7.60579 12.2169ZM0.951775 3.77056V5.77056H2.95177V3.77056H0.951775ZM3.74885 6.56767L3.74885 4.56767L3.74706 4.56767L3.74885 6.56767ZM0.945519 3.77056V1.77056H-1.05716L-1.05448 3.77323L0.945519 3.77056ZM5.59695 14.3681L8.51276 17.0777L11.2357 14.1476L8.31988 11.4379L5.59695 14.3681ZM9.87422 13.6126H6.40849V17.6126H9.87422V13.6126ZM6.41078 13.6126C6.36114 13.6126 6.31363 13.5928 6.27862 13.5578L3.4502 16.3863C4.23432 17.1704 5.29742 17.6114 6.40621 17.6126L6.41078 13.6126ZM6.27862 13.5578C6.24355 13.5228 6.22384 13.4752 6.22378 13.4257L2.22379 13.4302C2.22505 14.5391 2.66614 15.6022 3.4502 16.3863L6.27862 13.5578ZM6.22378 13.428V7.4688H2.22378V13.428H6.22378ZM4.47678 9.45273C5.92681 9.26782 7.25199 8.53753 8.18277 7.41038L5.09847 4.86341C4.81526 5.20637 4.41201 5.4286 3.97078 5.48486L4.47678 9.45273ZM8.18277 7.41038C9.11357 6.28322 9.58003 4.84385 9.48739 3.38505L5.49543 3.63856C5.52362 4.0825 5.38167 4.52047 5.09847 4.86341L8.18277 7.41038ZM9.48739 3.38505C9.39474 1.9262 8.74989 0.557432 7.68402 -0.442898L4.94669 2.47378C5.27103 2.77818 5.46724 3.19468 5.49543 3.63856L9.48739 3.38505ZM7.68402 -0.442898C6.61812 -1.44325 5.21125 -2 3.74949 -2V2C4.19431 2 4.62237 2.16941 4.94669 2.47378L7.68402 -0.442898ZM3.74949 -2C2.28776 -2 0.880848 -1.44327 -0.185067 -0.442898L2.55226 2.47378C2.87656 2.16943 3.30466 2 3.74949 2V-2ZM-0.185067 -0.442898C-1.25094 0.557432 -1.89579 1.9262 -1.98844 3.38505L2.00352 3.63856C2.03171 3.19468 2.22792 2.77818 2.55226 2.47378L-0.185067 -0.442898ZM-1.98844 3.38505C-2.08108 4.8439 -1.61455 6.28326 -0.683785 7.41038L2.40052 4.86341C2.11729 4.52042 1.97533 4.08244 2.00352 3.63856L-1.98844 3.38505ZM-0.683785 7.41038C0.246979 8.53751 1.57211 9.26781 3.02217 9.45273L3.52817 5.48486C3.08697 5.4286 2.68375 5.20639 2.40052 4.86341L-0.683785 7.41038ZM1.27517 7.4688V13.428H5.27517V7.4688H1.27517ZM1.27517 13.4303C1.27679 14.7906 1.81777 16.0948 2.77942 17.0568L5.60841 14.2289C5.39536 14.0158 5.27552 13.7269 5.27516 13.4256L1.27517 13.4303ZM2.77942 17.0568C3.7411 18.0189 5.04503 18.5603 6.40531 18.5625L6.41168 14.5625C6.11033 14.562 5.82146 14.4421 5.60841 14.2289L2.77942 17.0568ZM6.40849 18.5625H9.873V14.5625H6.40849V18.5625ZM8.51157 15.0974L5.59699 17.8058L8.31985 20.736L11.2344 18.0276L8.51157 15.0974ZM5.49505 20.6341L6.14242 21.329L9.06916 18.6025L8.42178 17.9076L5.49505 20.6341ZM8.96679 21.4313L13.1387 17.5568L10.4167 14.6258L6.24479 18.5003L8.96679 21.4313ZM13.1387 14.6258L8.96679 10.7514L6.2448 13.6824L10.4167 17.5568L13.1387 14.6258ZM6.1511 10.8443L5.50372 11.5305L8.41311 14.2755L9.06049 13.5894L6.1511 10.8443ZM2.95177 3.77056C2.95177 3.61291 2.99852 3.45882 3.0861 3.32774L-0.239774 1.10545C-0.766883 1.89433 -1.04823 2.82178 -1.04823 3.77056H2.95177ZM3.0861 3.32774C3.17372 3.19661 3.2982 3.09446 3.44381 3.03415L1.91307 -0.661367C1.03647 -0.298267 0.287312 0.316615 -0.239774 1.10545L3.0861 3.32774ZM3.44381 3.03415C3.58944 2.97383 3.74972 2.95804 3.90436 2.9888L4.68472 -0.934343C3.75419 -1.11944 2.78965 -1.02445 1.91307 -0.661367L3.44381 3.03415ZM3.90436 2.9888C4.05901 3.01956 4.20104 3.09549 4.3125 3.20694L7.14093 0.378515C6.47002 -0.292394 5.61523 -0.749252 4.68472 -0.934343L3.90436 2.9888ZM4.3125 3.20694C4.42395 3.3184 4.49988 3.46043 4.53064 3.61509L8.45378 2.83472C8.26869 1.90421 7.81183 1.04942 7.14093 0.378515L4.3125 3.20694ZM4.53064 3.61509C4.5614 3.76972 4.54562 3.92995 4.48529 4.07559L8.18081 5.60633C8.54389 4.72977 8.63888 3.76526 8.45378 2.83472L4.53064 3.61509ZM4.48529 4.07559C4.42495 4.22126 4.32278 4.34576 4.19171 4.43334L6.41399 7.75921C7.20288 7.23209 7.81773 6.48287 8.18081 5.60633L4.48529 4.07559ZM4.19171 4.43334C4.06064 4.52091 3.90652 4.56767 3.74885 4.56767V8.56767C4.6976 8.56767 5.62509 8.28634 6.41399 7.75921L4.19171 4.43334ZM3.74706 4.56767C3.53473 4.56786 3.33103 4.48372 3.18071 4.33374L0.355445 7.16532C1.25651 8.06438 2.47773 8.5688 3.75063 8.56767L3.74706 4.56767ZM3.18071 4.33374C3.03041 4.18377 2.9458 3.98022 2.94552 3.76788L-1.05448 3.77323C-1.05278 5.04612 -0.545636 6.26625 0.355445 7.16532L3.18071 4.33374ZM0.945519 5.77056H0.951775V1.77056H0.945519V5.77056Z" fill="white" mask="url(#path-3-inside-2_268:554)"/>
</svg>
