<svg width="25" height="24" viewBox="0 0 25 24" fill="none" xmlns="http://www.w3.org/2000/svg">
<path d="M11.1411 17.0712C13.9418 17.8216 16.8206 16.1595 17.571 13.3588C18.3215 10.5581 16.6594 7.67937 13.8587 6.92893C11.058 6.17848 8.17924 7.84054 7.4288 10.6412C6.67835 13.4419 8.34041 16.3207 11.1411 17.0712Z" stroke="white" stroke-width="2" stroke-linecap="round" stroke-linejoin="round"/>
<path d="M20.6633 13.4109L21.9718 12.261C22.0567 12.1871 22.1244 12.0954 22.17 11.9924C22.2155 11.8894 22.2379 11.7776 22.2354 11.665C22.2147 11.038 22.133 10.4145 21.9915 9.80331C21.9649 9.69412 21.9145 9.59216 21.8438 9.5047C21.7732 9.41725 21.6842 9.34646 21.5831 9.2974L20.02 8.52453L19.27 7.22552L19.3823 5.4854C19.3903 5.37328 19.3736 5.26076 19.3331 5.15588C19.2927 5.05099 19.2296 4.95633 19.1483 4.87865C18.6897 4.45059 18.1906 4.06815 17.6579 3.73672C17.5616 3.67826 17.4537 3.64171 17.3417 3.62967C17.2297 3.61762 17.1165 3.63038 17.01 3.66703L15.36 4.22521L13.9111 3.83698L12.7612 2.52858C12.6873 2.44359 12.5956 2.37592 12.4926 2.33036C12.3896 2.2848 12.2779 2.26248 12.1653 2.26498C11.5383 2.28567 10.9148 2.3673 10.3036 2.50869C10.1944 2.53534 10.0924 2.58578 10.0049 2.6564C9.91745 2.72701 9.84666 2.81607 9.7976 2.91721L9.02482 4.48023L7.7257 5.23027L5.98569 5.11801C5.87357 5.10993 5.76106 5.1267 5.65617 5.16713C5.55129 5.20757 5.45663 5.27066 5.37895 5.3519C4.95084 5.81051 4.56836 6.30967 4.2369 6.84234C4.17845 6.9386 4.1419 7.04655 4.12986 7.15853C4.11782 7.2705 4.13058 7.38376 4.16724 7.49025L4.72541 9.14026L4.33718 10.5891L3.02878 11.739C2.94379 11.8129 2.87612 11.9046 2.83056 12.0076C2.78501 12.1106 2.76268 12.2224 2.76518 12.3349C2.78584 12.962 2.86746 13.5855 3.00888 14.1967C3.03553 14.3059 3.08597 14.4079 3.15658 14.4953C3.2272 14.5828 3.31625 14.6536 3.41738 14.7026L4.98049 15.4755L5.73048 16.7745L5.61819 18.5146C5.61011 18.6268 5.62689 18.7393 5.66732 18.8442C5.70774 18.949 5.77083 19.0437 5.85207 19.1214C6.31066 19.5495 6.80981 19.9319 7.34247 20.2633C7.43873 20.3218 7.54668 20.3583 7.65864 20.3704C7.77061 20.3824 7.88386 20.3696 7.99034 20.333L9.64046 19.7748L11.0893 20.163L12.2393 21.4716C12.3132 21.5565 12.4049 21.6242 12.5079 21.6698C12.6109 21.7153 12.7226 21.7377 12.8352 21.7352C13.4622 21.7145 14.0857 21.6329 14.6969 21.4914C14.8061 21.4648 14.908 21.4144 14.9955 21.3437C15.083 21.2731 15.1537 21.1841 15.2028 21.0829L15.9757 19.5198L17.2747 18.7698L19.0148 18.882C19.1269 18.8901 19.2395 18.8733 19.3443 18.8329C19.4492 18.7925 19.5439 18.7294 19.6216 18.6481C20.0497 18.1896 20.4321 17.6904 20.7636 17.1578C20.822 17.0615 20.8586 16.9536 20.8706 16.8416C20.8827 16.7296 20.8699 16.6164 20.8333 16.5099L20.275 14.8598L20.6633 13.4109Z" stroke="white" stroke-width="2" stroke-linecap="round" stroke-linejoin="round"/>
</svg>
