<svg xmlns="http://www.w3.org/2000/svg" xmlns:xlink="http://www.w3.org/1999/xlink" width="39" height="42" fill="none" xmlns:v="https://vecta.io/nano"><path d="M5.323 7.093L1.92 22.325a7.27 7.27 0 0 0 5.509 8.678l12.08 2.698a7.27 7.27 0 0 0 8.677-5.509l3.403-15.232a7.27 7.27 0 0 0-5.509-8.677L14 1.584a7.27 7.27 0 0 0-8.678 5.509z" fill="url(#A)"/><use xlink:href="#F" fill="url(#B)"/><use xlink:href="#F" fill="#6d54d0" style="mix-blend-mode:darken" opacity=".05"/><use xlink:href="#G" fill="url(#C)"/><use xlink:href="#G" fill="#6d54d0" style="mix-blend-mode:darken" opacity=".05"/><path d="M27.271 27.403a1.71 1.71 0 0 0 1.71-1.71 1.71 1.71 0 0 0-1.71-1.71 1.71 1.71 0 0 0-1.71 1.71 1.71 1.71 0 0 0 1.71 1.71z" fill="url(#D)"/><path d="M18.252 19.621a1.35 1.35 0 0 0 1.348-1.348 1.35 1.35 0 0 0-1.348-1.348H8.56a1.35 1.35 0 0 0-1.348 1.348 1.35 1.35 0 0 0 1.348 1.348h9.692z" fill="url(#E)"/><defs><linearGradient id="A" x1="3.621" y1="14.709" x2="29.888" y2="20.577" xlink:href="#H"><stop stop-color="#f15e9e"/><stop offset="1" stop-color="#9578fc"/></linearGradient><linearGradient id="B" x1="17.522" y1="9.811" x2="17.522" y2="41.1" xlink:href="#H"><stop stop-color="#957deb"/><stop offset="1" stop-opacity=".25"/></linearGradient><linearGradient id="C" x1="30.417" y1="21.076" x2="30.417" y2="30.418" xlink:href="#H"><stop stop-color="#957deb"/><stop offset="1" stop-opacity=".25"/></linearGradient><linearGradient id="D" x1="27.271" y1="23.983" x2="27.271" y2="27.403" xlink:href="#H"><stop stop-color="#fff"/><stop offset="1" stop-color="#fff" stop-opacity=".2"/></linearGradient><linearGradient id="E" x1="19.6" y1="18.273" x2="7.212" y2="18.273" xlink:href="#H"><stop stop-color="#fff"/><stop offset="1" stop-color="#fff" stop-opacity="0"/></linearGradient><path id="F" d="M27.775 9.811H7.268A7.27 7.27 0 0 0 0 17.079v16.753A7.27 7.27 0 0 0 7.268 41.1h20.507a7.27 7.27 0 0 0 7.268-7.268V17.079a7.27 7.27 0 0 0-7.268-7.268z"/><path id="G" d="M26.811 21.076h11.164a.72.72 0 0 1 .718.718V29.7a.72.72 0 0 1-.718.718H26.811a4.67 4.67 0 0 1-4.671-4.671h0a4.67 4.67 0 0 1 4.671-4.671h0z"/><linearGradient id="H" gradientUnits="userSpaceOnUse"/></defs></svg>