<svg width="15" height="16" viewBox="0 0 15 16" fill="none" xmlns="http://www.w3.org/2000/svg">
<path d="M12.7686 9.76417C12.2164 9.43755 11.5945 9.34288 10.9786 9.32084C10.4618 9.30235 9.69077 8.96311 9.69077 8.00004C9.69077 7.2825 10.2586 6.70503 10.9788 6.67926C11.5947 6.65723 12.2165 6.56244 12.7686 6.23592C14.1395 5.42508 14.7443 3.72292 14.2028 2.19903C13.6614 0.675136 12.1301 -0.230542 10.5711 0.0510974C9.01212 0.332736 7.87557 1.72038 7.87563 3.34208C7.87563 3.98952 8.10041 4.58533 8.38723 5.13793C8.62846 5.6027 8.7505 6.46533 7.92315 6.95465C7.3077 7.31866 6.5396 7.08817 6.15594 6.45916C5.83187 5.92788 5.44066 5.43009 4.89295 5.10609C3.52203 4.29525 1.7807 4.60978 0.763156 5.85206C-0.254385 7.09433 -0.254385 8.90571 0.763156 10.148C1.7807 11.3903 3.52203 11.7048 4.89295 10.894C5.44051 10.5701 5.83175 10.0726 6.15562 9.54165C6.42157 9.10565 7.08577 8.54989 7.92312 9.04551C8.53764 9.40924 8.72761 10.2062 8.38694 10.8626C8.10017 11.4151 7.87567 12.0108 7.87567 12.6581C7.87567 14.2797 9.01223 15.6673 10.5712 15.9489C12.1301 16.2305 13.6614 15.3248 14.2028 13.801C14.7442 12.2771 14.1395 10.575 12.7686 9.76417Z" fill="#00AAE4"/>
</svg>
