<svg width="56" height="56" viewBox="0 0 56 56" fill="none" xmlns="http://www.w3.org/2000/svg">
<g id="Group 1302">
<rect id="Rectangle 2.3" opacity="0.1" width="56" height="56" rx="20" fill="#638FFE"/>
<path id="XRP" d="M35.0359 30.5346C34.2996 30.1308 33.4985 29.9438 32.7095 29.95L32.7162 29.9462C31.6337 29.9586 30.7458 29.1167 30.7331 28.0661C30.7206 27.0294 31.564 26.1776 32.6253 26.1422V26.1417L32.6234 26.1407C33.4262 26.1368 34.2385 25.9326 34.9785 25.5056C37.1913 24.2284 37.9188 21.4517 36.6034 19.3036C35.2876 17.1554 32.4273 16.4492 30.2145 17.7264C28.0016 19.0035 27.2742 21.7802 28.5898 23.9284C29.1377 24.8235 28.8349 25.9803 27.9129 26.5126C27.004 27.0371 25.8336 26.7584 25.2753 25.8933L25.2748 25.8935V25.8959C24.8725 25.2216 24.2864 24.6391 23.5371 24.2281C21.2958 22.9988 18.452 23.766 17.1857 25.942C15.9194 28.1176 16.7101 30.8782 18.9514 32.1074C21.1929 33.3367 24.0363 32.5695 25.3027 30.3935C25.3103 30.3804 25.3171 30.3668 25.3246 30.3536V30.3568L25.3251 30.357C25.863 29.4787 27.0281 29.1744 27.9489 29.6794C28.883 30.1917 29.2121 31.3418 28.6846 32.2483C27.4181 34.4243 28.2088 37.1847 30.4501 38.4138C32.6915 39.6433 35.5352 38.8759 36.8015 36.6999C38.0676 34.5242 37.2772 31.7639 35.0359 30.5346Z" fill="#638FFE"/>
</g>
</svg>
